<svg width="40" height="40" viewBox="0 0 40 40" fill="none" xmlns="http://www.w3.org/2000/svg">
<path fill-rule="evenodd" clip-rule="evenodd" d="M39.0036 5.90118C40.3284 4.57629 40.3261 2.4259 39.0076 1.10737L38.8926 0.992425C37.57 -0.330238 35.428 -0.332718 34.0988 0.996444L22.3989 12.6964C21.074 14.0212 18.9302 14.0255 17.6011 12.6964L5.90118 0.996444C4.57629 -0.328439 2.4259 -0.326105 1.10737 0.992425L0.992425 1.10737C-0.330238 2.43003 -0.332718 4.57202 0.996444 5.90118L12.6964 17.6011C14.0212 18.926 14.0255 21.0698 12.6964 22.3989L0.996444 34.0988C-0.328439 35.4237 -0.326105 37.5741 0.992425 38.8926L1.10737 39.0076C2.43003 40.3302 4.57202 40.3327 5.90118 39.0036L17.6011 27.3036C18.926 25.9788 21.0698 25.9745 22.3989 27.3036L34.0988 39.0036C35.4237 40.3284 37.5741 40.3261 38.8926 39.0076L39.0076 38.8926C40.3302 37.57 40.3327 35.428 39.0036 34.0988L27.3036 22.3989C25.9788 21.074 25.9745 18.9302 27.3036 17.6011L39.0036 5.90118Z" fill="black"/>
</svg>
