<svg width="30" height="30" viewBox="0 0 30 30" fill="none" xmlns="http://www.w3.org/2000/svg">
<path d="M15 0C6.7238 0 0 6.7238 0 15C0 23.2762 6.7238 30 15 30C23.2762 30 30 23.2762 30 15C30 6.7238 23.2762 0 15 0ZM15 1.36364C22.5392 1.36364 28.6364 7.46076 28.6364 15C28.6364 22.5392 22.5392 28.6364 15 28.6364C7.46077 28.6364 1.36364 22.5392 1.36364 15C1.36364 7.46076 7.46077 1.36364 15 1.36364ZM9.12997 8.51207C9.00001 8.52472 8.87641 8.57442 8.77387 8.65526C8.67132 8.7361 8.59415 8.84468 8.55151 8.9681C8.50887 9.09152 8.50257 9.22459 8.53335 9.35149C8.56413 9.47839 8.6307 9.59378 8.72514 9.68395L14.0412 15L8.72514 20.3054C8.65944 20.3679 8.60686 20.4428 8.57048 20.5259C8.53409 20.6089 8.51464 20.6984 8.51325 20.7891C8.51186 20.8797 8.52857 20.9698 8.56239 21.0539C8.59621 21.138 8.64648 21.2145 8.71023 21.279C8.77399 21.3435 8.84997 21.3946 8.93371 21.4293C9.01746 21.4641 9.10729 21.4818 9.19796 21.4814C9.28863 21.481 9.37831 21.4625 9.46176 21.4271C9.54521 21.3916 9.62074 21.3399 9.68395 21.2749L15 15.9588L20.3161 21.2749C20.3793 21.3399 20.4548 21.3916 20.5382 21.4271C20.6217 21.4625 20.7114 21.481 20.802 21.4814C20.8927 21.4818 20.9825 21.4641 21.0663 21.4293C21.15 21.3946 21.226 21.3435 21.2898 21.279C21.3535 21.2145 21.4038 21.138 21.4376 21.0539C21.4714 20.9698 21.4881 20.8797 21.4868 20.7891C21.4854 20.6984 21.4659 20.6089 21.4295 20.5259C21.3931 20.4428 21.3406 20.3679 21.2749 20.3054L15.9588 15L21.2749 9.68395C21.3806 9.58464 21.4519 9.4542 21.4784 9.31158C21.505 9.16897 21.4853 9.02161 21.4223 8.89093C21.3594 8.76025 21.2564 8.65305 21.1283 8.58491C21.0002 8.51678 20.8538 8.49127 20.7102 8.51207C20.56 8.53378 20.4212 8.60502 20.3161 8.71449L15 14.0305L9.68395 8.71449C9.61265 8.64143 9.52586 8.58532 9.42998 8.55029C9.3341 8.51525 9.23157 8.5022 9.12997 8.51207V8.51207Z" fill="black"/>
</svg>
