<svg width="16" height="16" viewBox="0 0 16 16" fill="none" xmlns="http://www.w3.org/2000/svg">
<path d="M15.3692 14.7697C15.3692 14.9541 15.3078 15.1078 15.1848 15.2308C15.0619 15.323 14.9389 15.3844 14.7545 15.3844H1.2301C1.07643 15.3844 0.92273 15.323 0.799769 15.2308C0.676808 15.1078 0.615356 14.9541 0.615356 14.7697V5.76367H15.3692V14.7697Z" fill="#FFD15C"/>
<path d="M15.1849 15.2309C15.0619 15.3231 14.939 15.3846 14.7545 15.3846H1.23014C1.07647 15.3846 0.922766 15.3231 0.799805 15.2309L7.99232 9.05273L15.1849 15.2309Z" fill="#F8B64C"/>
<path d="M15.3692 5.76371L13.2791 7.26983L8.39188 10.7739C8.14598 10.9583 7.80787 10.9583 7.56198 10.7739L2.70549 7.26983L0.615356 5.76371L2.70549 4.25758L7.2546 0.999436L7.59272 0.753543C7.83861 0.569131 8.17672 0.569131 8.42262 0.753543L8.76073 0.999436L10.9431 2.56704L12.0189 3.33546L13.2791 4.25758L15.3692 5.76371Z" fill="#40596B"/>
<path d="M13.2791 2.90523V7.26991L8.39189 10.774C8.146 10.9584 7.80789 10.9584 7.562 10.774L2.70551 7.26991V1.61426C2.70551 1.27614 2.98214 0.999512 3.32025 0.999512H11.3427L13.2791 2.90523Z" fill="#F2F2F2"/>
<path d="M11.3734 2.41345C11.3734 2.69008 11.5885 2.90523 11.8652 2.90523H13.2791L11.3734 0.999512L11.3734 2.41345Z" fill="#CDD6E0"/>
<path d="M9.80582 7.17784H10.2976C10.1439 7.51596 9.89802 7.76185 9.5599 7.94626C9.19105 8.16141 8.73 8.25363 8.17674 8.25363C7.65421 8.25363 7.19314 8.16141 6.82428 7.977C6.45543 7.79259 6.14806 7.54667 5.96364 7.17784C5.77923 6.83973 5.68701 6.44014 5.68701 6.04057C5.68701 5.57953 5.77923 5.17993 5.99438 4.78034C6.20954 4.38074 6.48617 4.10411 6.85502 3.9197C7.22388 3.73529 7.65418 3.64307 8.11526 3.64307C8.51485 3.64307 8.88367 3.73529 9.19105 3.88896C9.49842 4.04263 9.74431 4.25781 9.89802 4.56519C10.0517 4.84182 10.1439 5.17993 10.1439 5.51805C10.1439 5.91764 10.0209 6.28646 9.77505 6.62458C9.46768 7.05491 9.06809 7.23932 8.5763 7.23932C8.45334 7.23932 8.33041 7.20858 8.26893 7.17784C8.20745 7.11636 8.14597 7.05488 8.14597 6.96269C7.96156 7.1471 7.74637 7.23932 7.50048 7.23932C7.22385 7.23932 7.0087 7.1471 6.85499 6.96269C6.67058 6.77828 6.57836 6.53236 6.57836 6.22498C6.57836 5.85613 6.67058 5.51802 6.88573 5.1799C7.13163 4.81105 7.46974 4.62664 7.86933 4.62664C8.14597 4.62664 8.36112 4.7496 8.51482 4.96475L8.5763 4.68812H9.22179L8.85293 6.4094C8.82219 6.53236 8.82219 6.59381 8.82219 6.62455C8.82219 6.65529 8.82219 6.68603 8.85293 6.71677C8.88367 6.74751 8.88367 6.74751 8.91442 6.74751C8.9759 6.74751 9.09883 6.68603 9.22179 6.59384C9.37546 6.47088 9.52916 6.3172 9.62138 6.10205C9.7136 5.8869 9.77505 5.67172 9.77505 5.45657C9.77505 5.05697 9.62138 4.71886 9.34472 4.47297C9.06809 4.19633 8.66849 4.07337 8.14597 4.07337C7.71563 4.07337 7.34681 4.16559 7.03944 4.35C6.73206 4.53442 6.51691 4.78034 6.36321 5.08771C6.20951 5.39508 6.14806 5.7332 6.14806 6.10205C6.14806 6.44017 6.24028 6.74754 6.39395 7.02417C6.57836 7.3008 6.79354 7.51596 7.10092 7.63892C7.40829 7.76188 7.7464 7.82333 8.146 7.82333C8.51485 7.82333 8.85296 7.76185 9.1296 7.66966C9.40623 7.54667 9.62138 7.393 9.80582 7.17784ZM7.19314 6.19424C7.19314 6.4094 7.22388 6.53236 7.3161 6.65529C7.40832 6.74751 7.50051 6.80896 7.62347 6.80896C7.71569 6.80896 7.80788 6.77822 7.86936 6.74748C7.93084 6.71674 7.99233 6.65526 8.05378 6.59381C8.146 6.50159 8.20748 6.34792 8.26893 6.16347C8.33041 5.97906 8.36115 5.79462 8.36115 5.64095C8.36115 5.45654 8.33041 5.33357 8.23819 5.21061C8.14597 5.11839 8.05378 5.05694 7.93082 5.05694C7.80785 5.05694 7.65418 5.11842 7.56196 5.21061C7.439 5.30283 7.34681 5.45651 7.28533 5.67166C7.22388 5.85613 7.19314 6.04054 7.19314 6.19424Z" fill="#FF7058"/>
</svg>
