<svg width="8" height="14" viewBox="0 0 8 14" fill="none" xmlns="http://www.w3.org/2000/svg">
<path d="M0.977686 7.42091H2.39425V13.2527C2.39425 13.3679 2.48754 13.4612 2.60269 13.4612H5.00454C5.11968 13.4612 5.21297 13.3679 5.21297 13.2527V7.4484H6.84146C6.94734 7.4484 7.03644 7.36894 7.04853 7.26376L7.29586 5.11679C7.30265 5.05773 7.28395 4.99857 7.24442 4.95424C7.20487 4.9099 7.14825 4.88451 7.08884 4.88451H5.21307V3.53866C5.21307 3.13297 5.4315 2.92724 5.86241 2.92724C5.92382 2.92724 7.08884 2.92724 7.08884 2.92724C7.20398 2.92724 7.29727 2.8339 7.29727 2.7188V0.748061C7.29727 0.632914 7.20398 0.539626 7.08884 0.539626H5.39862C5.3867 0.539045 5.36023 0.538086 5.3212 0.538086C5.02794 0.538086 4.00855 0.595659 3.20331 1.33644C2.31111 2.15736 2.43514 3.14024 2.46477 3.31067V4.88445H0.977661C0.862515 4.88445 0.769226 4.97774 0.769226 5.09289V7.21245C0.769251 7.32757 0.86254 7.42091 0.977686 7.42091Z" fill="#385C8E"/>
</svg>
