<svg width="14" height="14" viewBox="0 0 14 14" fill="none" xmlns="http://www.w3.org/2000/svg">
<path d="M3.55327 4.69092H0.95322C0.837826 4.69092 0.744324 4.78446 0.744324 4.89981V13.2527C0.744324 13.3681 0.837826 13.4616 0.95322 13.4616H3.55327C3.66866 13.4616 3.76217 13.3681 3.76217 13.2527V4.89981C3.76217 4.78446 3.66866 4.69092 3.55327 4.69092Z" fill="#0E76A8"/>
<path d="M2.25416 0.538086C1.30811 0.538086 0.538452 1.30691 0.538452 2.25191C0.538452 3.19734 1.30811 3.96645 2.25416 3.96645C3.19946 3.96645 3.96849 3.19729 3.96849 2.25191C3.96853 1.30691 3.19946 0.538086 2.25416 0.538086Z" fill="#0E76A8"/>
<path d="M10.1667 4.48291C9.1224 4.48291 8.35044 4.93183 7.88222 5.44191V4.89941C7.88222 4.78406 7.78872 4.69051 7.67332 4.69051H5.18332C5.06793 4.69051 4.97443 4.78406 4.97443 4.89941V13.2523C4.97443 13.3676 5.06793 13.4611 5.18332 13.4611H7.77769C7.89308 13.4611 7.98659 13.3676 7.98659 13.2523V9.11953C7.98659 7.7269 8.36486 7.18436 9.33564 7.18436C10.3929 7.18436 10.4769 8.05412 10.4769 9.19118V13.2523C10.4769 13.3677 10.5704 13.4612 10.6858 13.4612H13.2811C13.3965 13.4612 13.49 13.3677 13.49 13.2523V8.67061C13.49 6.59982 13.0952 4.48291 10.1667 4.48291Z" fill="#0E76A8"/>
</svg>
