<svg width="202" height="543" viewBox="0 0 202 543" fill="none" xmlns="http://www.w3.org/2000/svg">
<rect opacity="0.6" width="202" height="543" fill="black"/>
<rect x="4" y="16" width="9" height="8" rx="1" fill="#333333"/>
<rect x="4" y="40" width="9" height="8" rx="1" fill="#333333"/>
<rect x="4" y="64" width="9" height="8" rx="1" fill="#333333"/>
<rect x="4" y="88" width="9" height="8" rx="1" fill="#333333"/>
<rect x="4" y="112" width="9" height="8" rx="1" fill="#333333"/>
<rect x="4" y="136" width="9" height="8" rx="1" fill="#333333"/>
<rect x="4" y="160" width="9" height="8" rx="1" fill="#333333"/>
<rect x="4" y="184" width="9" height="8" rx="1" fill="#333333"/>
<rect x="4" y="208" width="9" height="8" rx="1" fill="#333333"/>
<rect x="4" y="232" width="9" height="8" rx="1" fill="#333333"/>
<rect x="4" y="256" width="9" height="8" rx="1" fill="#333333"/>
<rect x="4" y="280" width="9" height="8" rx="1" fill="#333333"/>
<rect x="4" y="304" width="9" height="8" rx="1" fill="#333333"/>
<rect x="4" y="328" width="9" height="8" rx="1" fill="#333333"/>
<rect x="4" y="352" width="9" height="8" rx="1" fill="#333333"/>
<rect x="4" y="376" width="9" height="8" rx="1" fill="#333333"/>
<rect x="4" y="400" width="9" height="8" rx="1" fill="#333333"/>
<rect x="4" y="424" width="9" height="8" rx="1" fill="#333333"/>
<rect x="4" y="448" width="9" height="8" rx="1" fill="#333333"/>
<rect x="4" y="472" width="9" height="8" rx="1" fill="#333333"/>
<rect x="4" y="496" width="9" height="8" rx="1" fill="#333333"/>
<rect x="4" y="520" width="9" height="8" rx="1" fill="#333333"/>
<rect x="188" y="16" width="9" height="8" rx="1" fill="#333333"/>
<rect x="188" y="40" width="9" height="8" rx="1" fill="#333333"/>
<rect x="188" y="64" width="9" height="8" rx="1" fill="#333333"/>
<rect x="188" y="88" width="9" height="8" rx="1" fill="#333333"/>
<rect x="188" y="112" width="9" height="8" rx="1" fill="#333333"/>
<rect x="188" y="136" width="9" height="8" rx="1" fill="#333333"/>
<rect x="188" y="160" width="9" height="8" rx="1" fill="#333333"/>
<rect x="188" y="184" width="9" height="8" rx="1" fill="#333333"/>
<rect x="188" y="208" width="9" height="8" rx="1" fill="#333333"/>
<rect x="188" y="232" width="9" height="8" rx="1" fill="#333333"/>
<rect x="188" y="256" width="9" height="8" rx="1" fill="#333333"/>
<rect x="188" y="280" width="9" height="8" rx="1" fill="#333333"/>
<rect x="188" y="304" width="9" height="8" rx="1" fill="#333333"/>
<rect x="188" y="328" width="9" height="8" rx="1" fill="#333333"/>
<rect x="188" y="352" width="9" height="8" rx="1" fill="#333333"/>
<rect x="188" y="376" width="9" height="8" rx="1" fill="#333333"/>
<rect x="188" y="400" width="9" height="8" rx="1" fill="#333333"/>
<rect x="188" y="424" width="9" height="8" rx="1" fill="#333333"/>
<rect x="188" y="448" width="9" height="8" rx="1" fill="#333333"/>
<rect x="188" y="472" width="9" height="8" rx="1" fill="#333333"/>
<rect x="188" y="496" width="9" height="8" rx="1" fill="#333333"/>
<rect x="188" y="520" width="9" height="8" rx="1" fill="#333333"/>
<mask id="mask0" mask-type="alpha" maskUnits="userSpaceOnUse" x="0" y="0" width="202" height="543">
<rect width="202" height="543" fill="white"/>
</mask>
<g mask="url(#mask0)">
<rect x="18" y="-157" width="165" height="165" fill="white"/>
</g>
</svg>
