<svg width="118" height="20" viewBox="0 0 118 20" fill="none" xmlns="http://www.w3.org/2000/svg">
<path d="M13.3129 6.736C13.3129 7.792 13.1209 8.68 12.7369 9.4C12.3689 10.12 11.8649 10.704 11.2249 11.152C10.6009 11.584 9.87291 11.896 9.04091 12.088C8.20891 12.264 7.32891 12.352 6.40091 12.352C6.08091 12.352 5.71291 12.344 5.29691 12.328C4.88091 12.296 4.53691 12.272 4.26491 12.256V18.52C4.26491 18.648 4.21691 18.76 4.12091 18.856C4.04091 18.952 3.93691 19 3.80891 19H1.40891C1.28091 19 1.16891 18.952 1.07291 18.856C0.976906 18.76 0.928906 18.648 0.928906 18.52V2.008C0.928906 1.768 0.992906 1.6 1.12091 1.504C1.26491 1.392 1.45691 1.32 1.69691 1.288C2.32091 1.192 3.04091 1.12 3.85691 1.072C4.67291 1.008 5.52091 0.975999 6.40091 0.975999C7.32891 0.975999 8.20891 1.064 9.04091 1.24C9.87291 1.416 10.6009 1.72 11.2249 2.152C11.8649 2.584 12.3689 3.16 12.7369 3.88C13.1209 4.584 13.3129 5.464 13.3129 6.52V6.736ZM10.0009 6.52C10.0009 5.512 9.69691 4.8 9.08891 4.384C8.49691 3.952 7.60091 3.736 6.40091 3.736C6.27291 3.736 6.10491 3.744 5.89691 3.76C5.70491 3.76 5.50491 3.768 5.29691 3.784C5.08891 3.784 4.88891 3.792 4.69691 3.808C4.52091 3.808 4.37691 3.816 4.26491 3.832V9.544C4.36091 9.544 4.50491 9.552 4.69691 9.568C4.90491 9.568 5.11291 9.576 5.32091 9.592C5.54491 9.592 5.75291 9.6 5.94491 9.616C6.15291 9.616 6.30491 9.616 6.40091 9.616C7.69691 9.616 8.61691 9.376 9.16091 8.896C9.72091 8.416 10.0009 7.696 10.0009 6.736V6.52ZM26.0563 18.352C26.0563 18.528 26.0163 18.648 25.9363 18.712C25.8723 18.776 25.7523 18.824 25.5763 18.856C25.4003 18.904 25.1443 18.952 24.8083 19C24.4883 19.032 24.1363 19.064 23.7523 19.096C23.3683 19.128 22.9763 19.152 22.5763 19.168C22.1763 19.184 21.8163 19.192 21.4963 19.192C20.7123 19.192 19.9843 19.128 19.3123 19C18.6403 18.872 18.0563 18.632 17.5603 18.28C17.0643 17.912 16.6723 17.408 16.3843 16.768C16.0963 16.128 15.9523 15.296 15.9523 14.272V1.648C15.9523 1.52 16.0003 1.408 16.0963 1.312C16.1923 1.216 16.3043 1.168 16.4323 1.168H18.8083C18.9363 1.168 19.0483 1.216 19.1443 1.312C19.2403 1.408 19.2883 1.52 19.2883 1.648V14.272C19.2883 15.072 19.4243 15.616 19.6963 15.904C19.9683 16.192 20.4563 16.336 21.1603 16.336H25.5763C25.7043 16.336 25.8163 16.384 25.9123 16.48C26.0083 16.576 26.0563 16.688 26.0563 16.816V18.352ZM41.5753 18.592C41.5753 18.72 41.5353 18.824 41.4553 18.904C41.3753 18.968 41.2713 19 41.1433 19H38.5993C38.4873 19 38.3913 18.96 38.3113 18.88C38.2313 18.8 38.1753 18.704 38.1433 18.592L37.0393 14.032H31.5193L30.4153 18.592C30.3833 18.704 30.3273 18.8 30.2473 18.88C30.1673 18.96 30.0713 19 29.9593 19H27.4153C27.2873 19 27.1833 18.968 27.1033 18.904C27.0233 18.824 26.9833 18.72 26.9833 18.592C26.9833 18.576 26.9833 18.56 26.9833 18.544C26.9993 18.528 27.0073 18.504 27.0073 18.472L30.9433 3.424C31.0873 2.864 31.2953 2.424 31.5673 2.104C31.8393 1.784 32.1273 1.544 32.4313 1.384C32.7513 1.208 33.0713 1.096 33.3913 1.048C33.7273 0.999999 34.0233 0.975999 34.2793 0.975999C34.5353 0.975999 34.8233 0.999999 35.1433 1.048C35.4793 1.096 35.7993 1.208 36.1033 1.384C36.4233 1.544 36.7193 1.784 36.9913 2.104C37.2633 2.424 37.4713 2.864 37.6153 3.424L41.5513 18.472C41.5513 18.504 41.5513 18.528 41.5513 18.544C41.5673 18.56 41.5753 18.576 41.5753 18.592ZM34.6633 4.168C34.6313 4.024 34.5913 3.928 34.5433 3.88C34.4953 3.816 34.4073 3.784 34.2793 3.784C34.1513 3.784 34.0633 3.816 34.0153 3.88C33.9673 3.928 33.9273 4.024 33.8953 4.168L32.1673 11.296H36.3913L34.6633 4.168ZM53.5343 3.52C53.5343 3.648 53.4863 3.752 53.3903 3.832C53.2943 3.912 53.1823 3.952 53.0543 3.952H48.8543V18.52C48.8543 18.648 48.8063 18.76 48.7103 18.856C48.6143 18.952 48.5023 19 48.3743 19H45.9983C45.8703 19 45.7583 18.952 45.6623 18.856C45.5663 18.76 45.5183 18.648 45.5183 18.52V3.952H41.3183C41.1903 3.952 41.0783 3.912 40.9823 3.832C40.8863 3.752 40.8383 3.648 40.8383 3.52V1.624C40.8383 1.496 40.8863 1.392 40.9823 1.312C41.0783 1.216 41.1903 1.168 41.3183 1.168H53.0543C53.1823 1.168 53.2943 1.216 53.3903 1.312C53.4863 1.392 53.5343 1.496 53.5343 1.624V3.52ZM68.293 11.704C68.293 13.032 68.117 14.168 67.765 15.112C67.429 16.056 66.957 16.832 66.349 17.44C65.741 18.032 65.021 18.472 64.189 18.76C63.357 19.048 62.445 19.192 61.453 19.192C60.461 19.192 59.549 19.048 58.717 18.76C57.885 18.472 57.165 18.032 56.557 17.44C55.949 16.832 55.469 16.056 55.117 15.112C54.781 14.168 54.613 13.032 54.613 11.704V8.464C54.613 7.152 54.781 6.024 55.117 5.08C55.469 4.12 55.949 3.344 56.557 2.752C57.165 2.144 57.885 1.696 58.717 1.408C59.549 1.12 60.461 0.975999 61.453 0.975999C62.445 0.975999 63.357 1.12 64.189 1.408C65.021 1.696 65.741 2.144 66.349 2.752C66.957 3.344 67.429 4.12 67.765 5.08C68.117 6.024 68.293 7.152 68.293 8.464V11.704ZM64.933 8.464C64.933 6.864 64.645 5.704 64.069 4.984C63.509 4.248 62.637 3.88 61.453 3.88C60.269 3.88 59.389 4.248 58.813 4.984C58.253 5.704 57.973 6.864 57.973 8.464V11.704C57.973 13.304 58.253 14.472 58.813 15.208C59.389 15.928 60.269 16.288 61.453 16.288C62.637 16.288 63.509 15.928 64.069 15.208C64.645 14.472 64.933 13.304 64.933 11.704V8.464Z" fill="#212121"/>
<path d="M84.8935 18.52C84.8935 18.648 84.8455 18.76 84.7495 18.856C84.6535 18.952 84.5415 19 84.4135 19H82.0375C81.9095 19 81.7975 18.952 81.7015 18.856C81.6055 18.76 81.5575 18.648 81.5575 18.52V11.176H74.7415V18.52C74.7415 18.648 74.6935 18.76 74.5975 18.856C74.5015 18.952 74.3895 19 74.2615 19H71.8855C71.7575 19 71.6455 18.952 71.5495 18.856C71.4535 18.76 71.4055 18.648 71.4055 18.52V1.624C71.4055 1.496 71.4535 1.392 71.5495 1.312C71.6455 1.216 71.7575 1.168 71.8855 1.168H74.2615C74.3895 1.168 74.5015 1.216 74.5975 1.312C74.6935 1.392 74.7415 1.496 74.7415 1.624V8.248H81.5575V1.624C81.5575 1.496 81.6055 1.392 81.7015 1.312C81.7975 1.216 81.9095 1.168 82.0375 1.168H84.4135C84.5415 1.168 84.6535 1.216 84.7495 1.312C84.8455 1.392 84.8935 1.496 84.8935 1.624V18.52ZM101.571 12.4C101.571 13.68 101.403 14.752 101.067 15.616C100.747 16.48 100.291 17.176 99.6994 17.704C99.1234 18.232 98.4274 18.616 97.6114 18.856C96.8114 19.08 95.9314 19.192 94.9714 19.192C94.0114 19.192 93.1234 19.08 92.3074 18.856C91.5074 18.616 90.8114 18.232 90.2194 17.704C89.6434 17.176 89.1874 16.48 88.8514 15.616C88.5314 14.752 88.3714 13.68 88.3714 12.4V1.624C88.3714 1.496 88.4194 1.392 88.5154 1.312C88.6114 1.216 88.7234 1.168 88.8514 1.168H91.2274C91.3554 1.168 91.4674 1.216 91.5634 1.312C91.6594 1.392 91.7074 1.496 91.7074 1.624V12.4C91.7074 13.088 91.7554 13.688 91.8514 14.2C91.9474 14.696 92.1154 15.112 92.3554 15.448C92.6114 15.784 92.9474 16.032 93.3634 16.192C93.7794 16.352 94.3154 16.432 94.9714 16.432C95.6114 16.432 96.1394 16.352 96.5554 16.192C96.9874 16.032 97.3234 15.784 97.5634 15.448C97.8194 15.112 97.9954 14.696 98.0914 14.2C98.1874 13.688 98.2354 13.088 98.2354 12.4V1.624C98.2354 1.496 98.2834 1.392 98.3794 1.312C98.4754 1.216 98.5874 1.168 98.7154 1.168H101.091C101.219 1.168 101.331 1.216 101.427 1.312C101.523 1.392 101.571 1.496 101.571 1.624V12.4ZM117.662 14.008C117.662 14.968 117.486 15.776 117.134 16.432C116.798 17.088 116.31 17.624 115.67 18.04C115.046 18.44 114.286 18.736 113.39 18.928C112.494 19.104 111.486 19.192 110.366 19.192C109.39 19.192 108.542 19.168 107.822 19.12C107.118 19.072 106.582 19.008 106.214 18.928C105.814 18.848 105.518 18.728 105.326 18.568C105.15 18.392 105.062 18.08 105.062 17.632V2.512C105.062 2.08 105.142 1.776 105.302 1.6C105.478 1.408 105.758 1.28 106.142 1.216C106.462 1.168 106.974 1.12 107.678 1.072C108.382 1.008 109.206 0.975999 110.15 0.975999C111.238 0.975999 112.23 1.064 113.126 1.24C114.038 1.4 114.822 1.672 115.478 2.056C116.134 2.44 116.638 2.944 116.99 3.568C117.358 4.176 117.542 4.936 117.542 5.848V6.328C117.542 7.128 117.358 7.856 116.99 8.512C116.622 9.152 116.07 9.632 115.334 9.952C116.07 10.272 116.638 10.736 117.038 11.344C117.454 11.936 117.662 12.688 117.662 13.6V14.008ZM114.302 6.04C114.302 5.208 113.99 4.616 113.366 4.264C112.758 3.912 111.686 3.736 110.15 3.736C109.862 3.736 109.558 3.744 109.238 3.76C108.934 3.76 108.654 3.768 108.398 3.784V8.656H111.446C112.006 8.656 112.47 8.6 112.838 8.488C113.206 8.36 113.494 8.192 113.702 7.984C113.926 7.776 114.078 7.536 114.158 7.264C114.254 6.976 114.302 6.68 114.302 6.376V6.04ZM114.398 13.648C114.398 13.312 114.35 12.992 114.254 12.688C114.158 12.384 113.99 12.12 113.75 11.896C113.526 11.656 113.222 11.464 112.838 11.32C112.47 11.176 112.006 11.104 111.446 11.104H108.398V16.384C108.686 16.384 109.022 16.392 109.406 16.408C109.79 16.424 110.11 16.432 110.366 16.432C111.134 16.432 111.774 16.384 112.286 16.288C112.798 16.192 113.206 16.04 113.51 15.832C113.83 15.624 114.054 15.368 114.182 15.064C114.326 14.744 114.398 14.376 114.398 13.96V13.648Z" fill="#BDBDBD"/>
</svg>
