<svg width="451" height="302" viewBox="0 0 451 302" fill="none" xmlns="http://www.w3.org/2000/svg">
<g opacity="0.65">
<g opacity="0.7">
<path opacity="0.7" d="M279.14 201.193C281.781 191.463 282.021 181.237 279.838 171.392C278.79 166.763 277.518 163.719 276.417 161.766C276.008 161.007 275.371 160.395 274.597 160.014C273.823 159.634 272.95 159.505 272.099 159.645C271.435 159.696 270.792 159.903 270.223 160.248C267.633 161.803 265.058 164.086 262.667 166.611C255.566 174.184 250.463 183.406 247.818 193.443L246.205 199.463L242.341 198.428L261.084 128.479C265.013 113.818 265.605 98.4726 262.616 83.9069C261.197 77.0108 259.43 72.4889 257.913 69.5933C257.553 68.864 257.041 68.22 256.412 67.7041C255.783 67.1882 255.051 66.8125 254.265 66.6019C253.479 66.3913 252.658 66.3508 251.855 66.4831C251.052 66.6153 250.287 66.9172 249.611 67.3687C245.872 69.7386 242.147 73.1958 238.679 77.0047C228.405 88.299 220.984 102.252 216.939 117.349L198.371 186.646L195.031 185.751L196.721 179.444C199.45 169.428 199.641 158.891 197.278 148.782C196.468 145.403 195.38 142.139 193.916 139.493C193.497 138.722 192.844 138.104 192.051 137.729C191.258 137.353 190.366 137.239 189.504 137.402L189.624 137.516C189.076 137.601 188.55 137.792 188.076 138.078C186.161 139.223 183.538 141.223 180.299 144.704C173.487 152.138 168.581 161.114 166.004 170.862L137.982 275.441L149.899 278.634L146.296 286.883L139.408 312.589L149.15 315.199L156.038 289.494L157.042 280.548L168.787 283.695L194.306 188.457L197.646 189.352L172.241 284.162L181.759 286.712L177.974 295.367L171.086 321.076L180.831 323.688L187.719 297.983L188.769 288.595L201.594 292.031L197.809 300.686L190.921 326.391L200.667 329.003L207.555 303.298L208.605 293.91L216.203 295.946L241.608 201.132L245.472 202.167L219.914 297.549L223.045 298.388L223.084 298.244L233.438 301.018L229.834 309.268L222.947 334.973L232.693 337.584L239.58 311.879L240.584 302.933L251.122 305.757L279.14 201.193Z" fill="url(#paint0_linear)"/>
</g>
<path d="M159.321 285.001L150.094 282.529L154.742 271.775L160.673 273.364L159.321 285.001Z" fill="#535461"/>
<g opacity="0.1">
<path opacity="0.1" d="M153.091 276.096L159.942 277.932L160.32 274.679L154.39 273.09L153.091 276.096Z" fill="black"/>
</g>
<path d="M238.408 306.193L229.182 303.72L233.829 292.966L239.76 294.555L238.408 306.193Z" fill="#535461"/>
<g opacity="0.1">
<path opacity="0.1" d="M232.178 297.288L239.029 299.123L239.408 295.87L233.477 294.281L232.178 297.288Z" fill="black"/>
</g>
<path d="M189.31 293.037L180.08 290.564L184.728 279.809L190.662 281.4L189.31 293.037Z" fill="#535461"/>
<g opacity="0.1">
<path opacity="0.1" d="M183.077 284.131L189.931 285.968L190.31 282.715L184.375 281.124L183.077 284.131Z" fill="black"/>
</g>
<path d="M208.09 298.069L198.864 295.597L203.512 284.843L209.442 286.432L208.09 298.069Z" fill="#535461"/>
<g opacity="0.1">
<path opacity="0.1" d="M201.861 289.164L208.715 291.001L209.09 287.747L203.159 286.158L201.861 289.164Z" fill="black"/>
</g>
<path d="M253.026 198.913L187.12 181.253L186.414 183.887L252.32 201.547L253.026 198.913Z" fill="#535461"/>
<path d="M274.368 160.022C274.123 159.544 273.78 159.123 273.362 158.786C272.944 158.449 272.46 158.203 271.942 158.064C271.423 157.925 270.881 157.896 270.35 157.979C269.82 158.062 269.312 158.255 268.861 158.546C266.394 160.074 263.939 162.312 261.653 164.78C254.852 172.221 249.959 181.2 247.393 190.948L220.223 292.349L249.389 300.164L276.672 198.343C279.245 188.884 279.541 178.949 277.534 169.353C276.569 164.861 275.384 161.909 274.368 160.022Z" fill="#E0E0E0"/>
<path d="M190.734 137.612C191.185 137.321 191.692 137.128 192.223 137.045C192.753 136.962 193.295 136.99 193.814 137.129C194.333 137.268 194.817 137.515 195.235 137.852C195.653 138.189 195.995 138.61 196.241 139.088C197.613 141.644 198.62 144.81 199.366 148.09C201.535 157.935 201.283 168.158 198.632 177.882L171.461 279.284L142.287 271.466L169.57 169.645C172.071 160.166 176.782 151.415 183.318 144.107C186.396 140.699 188.898 138.735 190.734 137.612Z" fill="#E0E0E0"/>
<path d="M169.155 171.851L176.065 173.737L173.779 182.267L166.861 180.413L169.155 171.851Z" fill="#535461"/>
<path d="M191.234 177.768L198.144 179.653L195.859 188.183L188.94 186.329L191.234 177.768Z" fill="#535461"/>
<path d="M246.922 192.689L253.836 194.576L251.551 203.106L244.628 201.251L246.922 192.689Z" fill="#535461"/>
<path d="M269.002 198.605L275.916 200.492L273.63 209.022L266.708 207.167L269.002 198.605Z" fill="#535461"/>
<g opacity="0.1">
<path opacity="0.1" d="M199.389 147.955C198.648 144.676 197.636 141.509 196.264 138.952C195.882 138.208 195.267 137.609 194.513 137.247C193.758 136.885 192.906 136.779 192.086 136.946C192.447 137.266 192.749 137.647 192.977 138.072C194.349 140.628 195.356 143.794 196.102 147.074C198.272 156.919 198.019 167.142 195.368 176.866L168.199 278.26L171.495 279.143L198.66 177.761C201.312 168.032 201.563 157.804 199.389 147.955Z" fill="black"/>
</g>
<g opacity="0.1">
<path opacity="0.1" d="M264.237 165.631C266.519 163.162 268.978 160.925 271.445 159.397C271.908 159.107 272.425 158.913 272.965 158.828C272.336 158.324 271.564 158.032 270.759 157.992C269.955 157.951 269.158 158.165 268.482 158.603C266.015 160.131 263.559 162.369 261.273 164.837C254.472 172.278 249.579 181.257 247.014 191.004L219.845 292.398L222.813 293.193L249.977 191.815C252.54 182.062 257.433 173.077 264.237 165.631Z" fill="black"/>
</g>
<path d="M159.32 285.001L150.094 282.529L143.388 307.559L152.614 310.031L159.32 285.001Z" fill="url(#paint1_linear)"/>
<path d="M189.306 293.036L180.08 290.564L173.373 315.593L182.599 318.065L189.306 293.036Z" fill="url(#paint2_linear)"/>
<path d="M208.09 298.069L198.864 295.597L192.157 320.626L201.384 323.099L208.09 298.069Z" fill="url(#paint3_linear)"/>
<path d="M257.507 70.2941C257.178 69.5923 256.7 68.9709 256.106 68.4732C255.512 67.9756 254.816 67.6138 254.067 67.4132C253.318 67.2126 252.535 67.178 251.772 67.3119C251.008 67.4459 250.284 67.745 249.648 68.1884C246.088 70.5161 242.544 73.9062 239.214 77.6321C229.394 88.6842 222.257 102.301 218.32 116.994L174.72 279.711L216.347 290.865L260.122 127.493C263.948 113.215 264.619 98.2812 261.871 84.1743C260.574 77.4821 258.928 73.0997 257.507 70.2941Z" fill="#EEEEEE"/>
<path d="M254.763 88.9313L241.842 85.4691C239.412 84.8181 236.915 86.2589 236.264 88.6872L235.955 89.8423C235.304 92.2706 236.746 94.7668 239.176 95.4178L252.097 98.8801C254.527 99.531 257.024 98.0903 257.674 95.662L257.984 94.5069C258.635 92.0786 257.192 89.5823 254.763 88.9313Z" fill="#6C63FF"/>
<g opacity="0.7">
<path opacity="0.7" d="M70.4936 281.746C74.0297 282.694 77.6639 280.597 78.6109 277.063C79.5579 273.528 77.459 269.895 73.9229 268.948C70.3869 268 66.7526 270.097 65.8056 273.631C64.8586 277.166 66.9575 280.799 70.4936 281.746Z" fill="url(#paint4_linear)"/>
</g>
<path d="M70.5707 281.459C73.9478 282.363 77.4186 280.361 78.323 276.985C79.2274 273.61 77.2229 270.14 73.8458 269.236C70.4688 268.331 66.998 270.333 66.0936 273.709C65.1892 277.084 67.1936 280.554 70.5707 281.459Z" fill="url(#paint5_linear)"/>
<g opacity="0.4">
<path opacity="0.4" d="M381.071 87.4921C380.154 85.2375 378.798 83.1876 377.08 81.4619C375.106 79.4969 372.707 78.0113 370.068 77.1198C367.429 76.2283 364.621 75.9547 361.859 76.3201C359.098 76.6855 356.458 77.6801 354.142 79.2273C351.827 80.7744 349.898 82.8327 348.505 85.2433C347.112 87.6539 346.291 90.3523 346.107 93.1304C345.923 95.9085 346.379 98.6919 347.442 101.266C348.504 103.84 350.144 106.136 352.235 107.976C354.326 109.817 356.811 111.152 359.5 111.88C359.872 111.98 360.244 112.08 360.621 112.142C363.84 112.791 367.175 112.556 370.271 111.462C373.367 110.369 376.108 108.457 378.204 105.931C380.3 103.405 381.672 100.358 382.174 97.1149C382.677 93.8715 382.291 90.5523 381.058 87.51L381.071 87.4921Z" fill="url(#paint6_linear)"/>
</g>
<path opacity="0.2" d="M380.818 98.7556C379.688 102.974 376.992 106.604 373.279 108.906C369.567 111.209 365.116 112.011 360.832 111.149C360.477 111.08 360.122 110.998 359.77 110.903C357.225 110.22 354.871 108.96 352.891 107.222C350.91 105.485 349.355 103.315 348.347 100.881C347.339 98.4468 346.905 95.8139 347.077 93.1855C347.25 90.5572 348.025 88.0039 349.342 85.7229C350.659 83.442 352.484 81.4946 354.675 80.0312C356.865 78.5679 359.364 77.6278 361.976 77.2836C364.589 76.9395 367.246 77.2005 369.741 78.0465C372.237 78.8925 374.505 80.3008 376.37 82.1626C377.994 83.7943 379.277 85.7327 380.144 87.8649C381.553 91.3243 381.79 95.1496 380.818 98.7556Z" fill="#6C63FF"/>
<path opacity="0.05" d="M362.95 82.688C361.993 82.828 361.049 83.0419 360.125 83.3278C359.519 83.4789 358.956 83.7679 358.48 84.1722C358.246 84.3762 358.076 84.6434 357.99 84.9418C357.904 85.2402 357.906 85.557 357.995 85.8544C358.247 86.5131 359.024 86.8154 359.682 87.0303C360.261 87.3251 360.908 87.4609 361.556 87.4239C362.205 87.3869 362.832 87.1785 363.373 86.8198L365.148 85.9073C365.764 85.5925 366.474 85.1187 366.427 84.4293C366.392 83.9017 365.912 83.5202 365.441 83.3084C364.279 82.7383 362.946 82.6209 361.702 82.9791" fill="#F55F44"/>
<path opacity="0.05" d="M352.178 99.0371C352.66 99.1662 353.155 98.8806 353.284 98.3994C353.413 97.9181 353.127 97.4234 352.645 97.2944C352.164 97.1654 351.669 97.4509 351.54 97.9322C351.411 98.4134 351.697 98.9081 352.178 99.0371Z" fill="#F55F44"/>
<path opacity="0.05" d="M370.805 100.597C372.574 101.071 374.392 100.021 374.866 98.2532C375.34 96.485 374.289 94.6672 372.52 94.1932C370.751 93.7192 368.933 94.7683 368.459 96.5365C367.985 98.3047 369.035 100.122 370.805 100.597Z" fill="#F55F44"/>
<path opacity="0.05" d="M380.149 87.862C379.912 88.6951 379.441 89.4428 378.791 90.0159C378.142 90.5891 377.341 90.9638 376.485 91.0953C375.628 91.2269 374.752 91.1099 373.96 90.7581C373.168 90.4064 372.493 89.8347 372.017 89.1111C371.54 88.3875 371.281 87.5424 371.271 86.6763C371.261 85.8101 371.5 84.9594 371.96 84.2251C372.419 83.4908 373.08 82.904 373.864 82.5343C374.647 82.1646 375.521 82.0276 376.38 82.1397C378.005 83.7777 379.286 85.7231 380.149 87.862Z" fill="#F55F44"/>
<path opacity="0.05" d="M375.23 107.501C373.257 109.15 370.939 110.333 368.447 110.965C365.955 111.596 363.352 111.659 360.832 111.149C360.873 110.916 360.923 110.681 360.985 110.449C361.376 108.993 362.164 107.674 363.261 106.639C364.358 105.604 365.721 104.894 367.198 104.589C368.675 104.283 370.208 104.394 371.626 104.908C373.044 105.422 374.292 106.32 375.23 107.501Z" fill="#F55F44"/>
<path opacity="0.25" d="M334.074 217.28C335.201 217.581 336.359 216.913 336.66 215.788C336.962 214.662 336.293 213.504 335.167 213.203C334.04 212.901 332.883 213.569 332.581 214.695C332.279 215.82 332.948 216.978 334.074 217.28Z" fill="#535461"/>
<path opacity="0.25" d="M47.7802 197.974C48.9066 198.275 50.0643 197.607 50.366 196.482C50.6676 195.356 49.999 194.198 48.8726 193.896C47.7462 193.595 46.5885 194.263 46.2868 195.388C45.9851 196.514 46.6537 197.672 47.7802 197.974Z" fill="#535461"/>
<path opacity="0.25" d="M395.4 303.542C396.527 303.844 397.684 303.176 397.986 302.05C398.288 300.924 397.619 299.767 396.493 299.465C395.366 299.163 394.209 299.831 393.907 300.957C393.605 302.083 394.274 303.24 395.4 303.542Z" fill="#535461"/>
<path opacity="0.25" d="M168.904 139.324C170.03 139.626 171.188 138.958 171.489 137.832C171.791 136.706 171.122 135.549 169.996 135.247C168.87 134.945 167.712 135.613 167.41 136.739C167.109 137.865 167.777 139.022 168.904 139.324Z" fill="#535461"/>
<path opacity="0.25" d="M174.764 90.6594C175.89 90.9613 177.048 90.2933 177.349 89.1674C177.651 88.0416 176.982 86.8842 175.856 86.5824C174.73 86.2806 173.572 86.9486 173.27 88.0744C172.969 89.2003 173.637 90.3576 174.764 90.6594Z" fill="#535461"/>
<path opacity="0.25" d="M92.209 168.07C93.3354 168.372 94.4931 167.704 94.7948 166.578C95.0965 165.452 94.4279 164.295 93.3014 163.993C92.175 163.691 91.0173 164.359 90.7157 165.485C90.414 166.611 91.0826 167.768 92.209 168.07Z" fill="#535461"/>
<path opacity="0.25" d="M380.617 245.73L378.801 245.244L379.286 243.433L378.547 243.235L378.061 245.045L376.246 244.559L376.047 245.302L377.862 245.789L377.377 247.6L378.117 247.798L378.602 245.987L380.418 246.474L380.617 245.73Z" fill="#535461"/>
<path opacity="0.25" d="M427.825 191.12L426.01 190.634L426.495 188.823L425.755 188.625L425.27 190.435L423.454 189.949L423.255 190.692L425.071 191.179L424.585 192.989L425.325 193.188L425.81 191.377L427.626 191.864L427.825 191.12Z" fill="#535461"/>
<path opacity="0.25" d="M307.794 121.383L305.979 120.896L306.465 119.081L305.725 118.883L305.239 120.698L303.423 120.211L303.225 120.951L305.041 121.437L304.555 123.252L305.294 123.45L305.781 121.636L307.596 122.122L307.794 121.383Z" fill="#535461"/>
<path opacity="0.25" d="M363.539 230.234L361.723 229.748L362.209 227.937L361.469 227.739L360.984 229.549L359.172 229.064L358.973 229.807L360.784 230.293L360.299 232.103L361.039 232.302L361.524 230.491L363.34 230.978L363.539 230.234Z" fill="#535461"/>
<path opacity="0.25" d="M280.982 272.699L279.171 272.214L279.656 270.403L278.916 270.205L278.431 272.016L276.615 271.529L276.416 272.273L278.232 272.759L277.747 274.57L278.486 274.768L278.972 272.957L280.783 273.443L280.982 272.699Z" fill="#535461"/>
<path opacity="0.25" d="M128.465 98.603L126.649 98.1165L127.135 96.3058L126.395 96.1076L125.91 97.9182L124.094 97.4317L123.896 98.1712L125.711 98.6577L125.225 100.472L125.965 100.671L126.451 98.8559L128.267 99.3424L128.465 98.603Z" fill="#535461"/>
<path opacity="0.25" d="M58.9594 105.255L57.1438 104.768L57.6289 102.958L56.8891 102.759L56.4039 104.57L54.5883 104.084L54.3902 104.823L56.2058 105.31L55.7195 107.124L56.4594 107.322L56.9456 105.508L58.7612 105.994L58.9594 105.255Z" fill="#535461"/>
<path opacity="0.25" d="M127.302 203.13L125.486 202.644L125.973 200.829L125.233 200.631L124.746 202.446L122.935 201.96L122.737 202.7L124.548 203.185L124.062 205L124.802 205.198L125.288 203.383L127.104 203.87L127.302 203.13Z" fill="#535461"/>
<g opacity="0.4">
<path opacity="0.4" d="M152.733 168.047C152.297 166.972 151.651 165.995 150.833 165.173C149.895 164.229 148.752 163.513 147.493 163.082C146.234 162.651 144.892 162.515 143.572 162.686C142.253 162.857 140.99 163.33 139.883 164.068C138.775 164.806 137.853 165.789 137.188 166.94C136.522 168.092 136.131 169.382 136.045 170.71C135.959 172.037 136.18 173.367 136.691 174.595C137.202 175.823 137.99 176.918 138.993 177.793C139.995 178.668 141.186 179.3 142.473 179.641C142.649 179.688 142.829 179.736 143.001 179.782C144.534 180.089 146.121 179.976 147.595 179.455C149.068 178.934 150.373 178.024 151.371 176.821C152.368 175.618 153.022 174.168 153.261 172.624C153.501 171.08 153.318 169.5 152.732 168.051L152.733 168.047Z" fill="url(#paint7_linear)"/>
</g>
<path opacity="0.2" d="M152.612 173.412C152.073 175.421 150.789 177.15 149.021 178.246C147.252 179.343 145.132 179.724 143.092 179.314C142.928 179.27 142.76 179.225 142.592 179.18C141.38 178.854 140.26 178.254 139.317 177.426C138.374 176.598 137.634 175.565 137.154 174.405C136.675 173.246 136.468 171.993 136.55 170.741C136.632 169.49 137.002 168.274 137.629 167.188C138.256 166.102 139.125 165.174 140.168 164.477C141.211 163.781 142.401 163.333 143.645 163.169C144.889 163.005 146.154 163.129 147.343 163.531C148.531 163.934 149.611 164.604 150.499 165.49C151.272 166.267 151.883 167.19 152.297 168.204C152.971 169.859 153.081 171.689 152.612 173.412Z" fill="#6C63FF"/>
<path opacity="0.1" d="M144.101 165.759C143.638 165.823 143.182 165.922 142.735 166.057C142.447 166.127 142.179 166.262 141.952 166.452C141.844 166.551 141.766 166.679 141.728 166.82C141.69 166.962 141.694 167.111 141.738 167.251C141.824 167.396 141.94 167.521 142.078 167.618C142.216 167.714 142.374 167.779 142.54 167.809C142.814 167.946 143.119 168.008 143.425 167.99C143.731 167.972 144.026 167.874 144.282 167.706L145.127 167.272C145.421 167.12 145.759 166.898 145.741 166.58C145.717 166.455 145.661 166.339 145.579 166.242C145.497 166.145 145.391 166.071 145.272 166.026C144.719 165.755 144.084 165.7 143.492 165.871" fill="#F55F44"/>
<path opacity="0.1" d="M138.972 173.545C139.202 173.607 139.438 173.471 139.5 173.241C139.561 173.011 139.425 172.775 139.195 172.713C138.965 172.651 138.728 172.788 138.667 173.018C138.605 173.248 138.742 173.484 138.972 173.545Z" fill="#F55F44"/>
<path opacity="0.1" d="M147.842 174.289C148.685 174.515 149.553 174.015 149.779 173.171C150.004 172.328 149.504 171.461 148.66 171.235C147.816 171.009 146.949 171.509 146.723 172.353C146.497 173.196 146.998 174.063 147.842 174.289Z" fill="#F55F44"/>
<path opacity="0.1" d="M152.287 168.24C152.175 168.637 151.952 168.993 151.643 169.267C151.335 169.54 150.954 169.719 150.547 169.783C150.139 169.846 149.722 169.791 149.345 169.624C148.968 169.458 148.646 169.186 148.419 168.842C148.191 168.498 148.068 168.096 148.062 167.684C148.057 167.272 148.17 166.867 148.388 166.517C148.606 166.167 148.921 165.888 149.293 165.711C149.666 165.535 150.082 165.469 150.491 165.522C151.264 166.3 151.874 167.224 152.287 168.24Z" fill="#F55F44"/>
<path opacity="0.1" d="M149.952 177.579C149.013 178.365 147.909 178.929 146.722 179.23C145.535 179.531 144.295 179.561 143.095 179.319C143.124 179.211 143.154 179.099 143.184 178.987C143.368 178.29 143.744 177.657 144.268 177.162C144.793 176.666 145.445 176.326 146.152 176.181C146.859 176.036 147.593 176.091 148.27 176.339C148.948 176.588 149.543 177.021 149.988 177.589L149.952 177.579Z" fill="#F55F44"/>
<g opacity="0.1">
<path opacity="0.1" d="M258.232 133.652L217.041 122.615L216.612 124.214L257.804 135.251L258.232 133.652Z" fill="black"/>
</g>
</g>
<defs>
<linearGradient id="paint0_linear" x1="185.363" y1="324.902" x2="254.55" y2="66.6915" gradientUnits="userSpaceOnUse">
<stop stop-color="#808080" stop-opacity="0.25"/>
<stop offset="0.54" stop-color="#808080" stop-opacity="0.12"/>
<stop offset="1" stop-color="#808080" stop-opacity="0.1"/>
</linearGradient>
<linearGradient id="paint1_linear" x1="154.705" y1="283.765" x2="147.998" y2="308.798" gradientUnits="userSpaceOnUse">
<stop stop-color="#E0E0E0"/>
<stop offset="0.31" stop-color="#FCCC63"/>
<stop offset="0.77" stop-color="#F55F44"/>
</linearGradient>
<linearGradient id="paint2_linear" x1="184.691" y1="291.799" x2="177.983" y2="316.833" gradientUnits="userSpaceOnUse">
<stop stop-color="#E0E0E0"/>
<stop offset="0.31" stop-color="#FCCC63"/>
<stop offset="0.77" stop-color="#F55F44"/>
</linearGradient>
<linearGradient id="paint3_linear" x1="203.475" y1="296.832" x2="196.767" y2="321.866" gradientUnits="userSpaceOnUse">
<stop stop-color="#E0E0E0"/>
<stop offset="0.31" stop-color="#FCCC63"/>
<stop offset="0.77" stop-color="#F55F44"/>
</linearGradient>
<linearGradient id="paint4_linear" x1="-316.198" y1="9288.73" x2="-206.389" y2="8878.92" gradientUnits="userSpaceOnUse">
<stop stop-color="#808080" stop-opacity="0.25"/>
<stop offset="0.54" stop-color="#808080" stop-opacity="0.12"/>
<stop offset="1" stop-color="#808080" stop-opacity="0.1"/>
</linearGradient>
<linearGradient id="paint5_linear" x1="-196.221" y1="8500.82" x2="-296.408" y2="8874.72" gradientUnits="userSpaceOnUse">
<stop stop-color="#F2F2F2"/>
<stop offset="0.31" stop-color="#E6E6E6"/>
<stop offset="0.77" stop-color="#CCCCCC"/>
</linearGradient>
<linearGradient id="paint6_linear" x1="28864.2" y1="13461.7" x2="29690.6" y2="10377.6" gradientUnits="userSpaceOnUse">
<stop stop-color="#808080" stop-opacity="0.25"/>
<stop offset="0.54" stop-color="#808080" stop-opacity="0.12"/>
<stop offset="1" stop-color="#808080" stop-opacity="0.1"/>
</linearGradient>
<linearGradient id="paint7_linear" x1="4664.18" y1="9381.77" x2="4851.67" y2="8682.05" gradientUnits="userSpaceOnUse">
<stop stop-color="#808080" stop-opacity="0.25"/>
<stop offset="0.54" stop-color="#808080" stop-opacity="0.12"/>
<stop offset="1" stop-color="#808080" stop-opacity="0.1"/>
</linearGradient>
</defs>
</svg>
