<svg width="1440" height="465" viewBox="0 0 1440 465" fill="none" xmlns="http://www.w3.org/2000/svg">
<g opacity="0.6">
<path opacity="0.6" d="M456.013 374.516C456.896 374.516 457.612 373.765 457.612 372.839C457.612 371.912 456.896 371.161 456.013 371.161C455.13 371.161 454.414 371.912 454.414 372.839C454.414 373.765 455.13 374.516 456.013 374.516Z" fill="white"/>
<path opacity="0.6" d="M633.604 332.582C634.192 332.582 634.67 332.082 634.67 331.464C634.67 330.846 634.192 330.346 633.604 330.346C633.015 330.346 632.537 330.846 632.537 331.464C632.537 332.082 633.015 332.582 633.604 332.582Z" fill="white"/>
<path opacity="0.6" d="M546.274 315.156C547.01 315.156 547.607 314.531 547.607 313.759C547.607 312.987 547.01 312.361 546.274 312.361C545.538 312.361 544.942 312.987 544.942 313.759C544.942 314.531 545.538 315.156 546.274 315.156Z" fill="white"/>
<path opacity="0.6" d="M503.898 315.063C504.879 315.063 505.675 314.229 505.675 313.199C505.675 312.17 504.879 311.336 503.898 311.336C502.917 311.336 502.121 312.17 502.121 313.199C502.121 314.229 502.917 315.063 503.898 315.063Z" fill="white"/>
<path opacity="0.6" d="M481.866 234.364C482.651 234.364 483.287 233.696 483.287 232.873C483.287 232.049 482.651 231.382 481.866 231.382C481.081 231.382 480.444 232.049 480.444 232.873C480.444 233.696 481.081 234.364 481.866 234.364Z" fill="white"/>
<path opacity="0.6" d="M530.55 221.597C531.335 221.597 531.971 220.93 531.971 220.106C531.971 219.283 531.335 218.615 530.55 218.615C529.765 218.615 529.128 219.283 529.128 220.106C529.128 220.93 529.765 221.597 530.55 221.597Z" fill="white"/>
<path opacity="0.6" d="M476.624 173.699C477.213 173.699 477.69 173.199 477.69 172.581C477.69 171.964 477.213 171.463 476.624 171.463C476.035 171.463 475.558 171.964 475.558 172.581C475.558 173.199 476.035 173.699 476.624 173.699Z" fill="white"/>
<path opacity="0.6" d="M378.545 269.309C379.134 269.309 379.611 268.808 379.611 268.19C379.611 267.573 379.134 267.072 378.545 267.072C377.956 267.072 377.479 267.573 377.479 268.19C377.479 268.808 377.956 269.309 378.545 269.309Z" fill="white"/>
<path opacity="0.6" d="M385.564 336.216C386.152 336.216 386.63 335.716 386.63 335.098C386.63 334.481 386.152 333.98 385.564 333.98C384.975 333.98 384.497 334.481 384.497 335.098C384.497 335.716 384.975 336.216 385.564 336.216Z" fill="white"/>
<path opacity="0.6" d="M387.873 449.438C388.462 449.438 388.939 448.937 388.939 448.32C388.939 447.702 388.462 447.201 387.873 447.201C387.285 447.201 386.807 447.702 386.807 448.32C386.807 448.937 387.285 449.438 387.873 449.438Z" fill="white"/>
<path opacity="0.6" d="M472.537 429.962C473.126 429.962 473.604 429.461 473.604 428.844C473.604 428.226 473.126 427.725 472.537 427.725C471.949 427.725 471.471 428.226 471.471 428.844C471.471 429.461 471.949 429.962 472.537 429.962Z" fill="white"/>
<path opacity="0.6" d="M278.867 446.176C279.456 446.176 279.933 445.676 279.933 445.058C279.933 444.441 279.456 443.94 278.867 443.94C278.279 443.94 277.801 444.441 277.801 445.058C277.801 445.676 278.279 446.176 278.867 446.176Z" fill="white"/>
<path opacity="0.6" d="M99.056 420.736C99.8411 420.736 100.477 420.069 100.477 419.245C100.477 418.422 99.8411 417.755 99.056 417.755C98.271 417.755 97.6346 418.422 97.6346 419.245C97.6346 420.069 98.271 420.736 99.056 420.736Z" fill="white"/>
<path opacity="0.6" d="M35.8023 397.626C36.5873 397.626 37.2237 396.959 37.2237 396.135C37.2237 395.312 36.5873 394.644 35.8023 394.644C35.0173 394.644 34.3809 395.312 34.3809 396.135C34.3809 396.959 35.0173 397.626 35.8023 397.626Z" fill="white"/>
<path opacity="0.6" d="M42.1988 414.866C42.7385 414.866 43.176 414.407 43.176 413.841C43.176 413.275 42.7385 412.816 42.1988 412.816C41.6591 412.816 41.2216 413.275 41.2216 413.841C41.2216 414.407 41.6591 414.866 42.1988 414.866Z" fill="white"/>
<path opacity="0.6" d="M0.977235 334.539C1.51695 334.539 1.95447 334.08 1.95447 333.514C1.95447 332.948 1.51695 332.489 0.977235 332.489C0.437522 332.489 0 332.948 0 333.514C0 334.08 0.437522 334.539 0.977235 334.539Z" fill="white"/>
<path opacity="0.6" d="M96.1244 330.812C96.6641 330.812 97.1016 330.353 97.1016 329.787C97.1016 329.22 96.6641 328.761 96.1244 328.761C95.5847 328.761 95.1472 329.22 95.1472 329.787C95.1472 330.353 95.5847 330.812 96.1244 330.812Z" fill="white"/>
<path opacity="0.6" d="M62.4542 267.911C63.1902 267.911 63.7868 267.285 63.7868 266.513C63.7868 265.741 63.1902 265.115 62.4542 265.115C61.7183 265.115 61.1216 265.741 61.1216 266.513C61.1216 267.285 61.7183 267.911 62.4542 267.911Z" fill="white"/>
<path opacity="0.6" d="M37.4903 266.979C38.03 266.979 38.4675 266.52 38.4675 265.954C38.4675 265.388 38.03 264.929 37.4903 264.929C36.9506 264.929 36.5131 265.388 36.5131 265.954C36.5131 266.52 36.9506 266.979 37.4903 266.979Z" fill="white"/>
<path opacity="0.6" d="M51.4381 198.207C51.9778 198.207 52.4153 197.749 52.4153 197.182C52.4153 196.616 51.9778 196.157 51.4381 196.157C50.8984 196.157 50.4609 196.616 50.4609 197.182C50.4609 197.749 50.8984 198.207 51.4381 198.207Z" fill="white"/>
<path opacity="0.6" d="M109.45 209.11C109.99 209.11 110.428 208.651 110.428 208.085C110.428 207.519 109.99 207.06 109.45 207.06C108.911 207.06 108.473 207.519 108.473 208.085C108.473 208.651 108.911 209.11 109.45 209.11Z" fill="white"/>
<path opacity="0.6" d="M11.9933 204.265C12.5331 204.265 12.9706 203.806 12.9706 203.24C12.9706 202.673 12.5331 202.214 11.9933 202.214C11.4536 202.214 11.0161 202.673 11.0161 203.24C11.0161 203.806 11.4536 204.265 11.9933 204.265Z" fill="white"/>
<path opacity="0.6" d="M168.617 332.023C169.157 332.023 169.595 331.564 169.595 330.998C169.595 330.432 169.157 329.973 168.617 329.973C168.078 329.973 167.64 330.432 167.64 330.998C167.64 331.564 168.078 332.023 168.617 332.023Z" fill="white"/>
<path opacity="0.6" d="M238.268 246.851C238.807 246.851 239.245 246.392 239.245 245.826C239.245 245.26 238.807 244.801 238.268 244.801C237.728 244.801 237.29 245.26 237.29 245.826C237.29 246.392 237.728 246.851 238.268 246.851Z" fill="white"/>
<path opacity="0.6" d="M249.906 229.798C250.445 229.798 250.883 229.339 250.883 228.773C250.883 228.206 250.445 227.747 249.906 227.747C249.366 227.747 248.928 228.206 248.928 228.773C248.928 229.339 249.366 229.798 249.906 229.798Z" fill="white"/>
<path opacity="0.6" d="M313.692 181.154C314.232 181.154 314.67 180.695 314.67 180.129C314.67 179.563 314.232 179.104 313.692 179.104C313.153 179.104 312.715 179.563 312.715 180.129C312.715 180.695 313.153 181.154 313.692 181.154Z" fill="white"/>
<path opacity="0.6" d="M400.755 236.507C401.295 236.507 401.732 236.048 401.732 235.482C401.732 234.916 401.295 234.457 400.755 234.457C400.215 234.457 399.778 234.916 399.778 235.482C399.778 236.048 400.215 236.507 400.755 236.507Z" fill="white"/>
<path opacity="0.6" d="M795.736 44.0772C796.324 44.0772 796.802 43.5765 796.802 42.9589C796.802 42.3413 796.324 41.8407 795.736 41.8407C795.147 41.8407 794.67 42.3413 794.67 42.9589C794.67 43.5765 795.147 44.0772 795.736 44.0772Z" fill="white"/>
<path opacity="0.6" d="M802.665 110.985C803.254 110.985 803.731 110.484 803.731 109.867C803.731 109.249 803.254 108.748 802.665 108.748C802.076 108.748 801.599 109.249 801.599 109.867C801.599 110.484 802.076 110.985 802.665 110.985Z" fill="white"/>
<path opacity="0.6" d="M804.975 224.206C805.564 224.206 806.041 223.706 806.041 223.088C806.041 222.471 805.564 221.97 804.975 221.97C804.386 221.97 803.909 222.471 803.909 223.088C803.909 223.706 804.386 224.206 804.975 224.206Z" fill="white"/>
<path opacity="0.6" d="M695.969 220.945C696.558 220.945 697.035 220.444 697.035 219.827C697.035 219.209 696.558 218.708 695.969 218.708C695.38 218.708 694.903 219.209 694.903 219.827C694.903 220.444 695.38 220.945 695.969 220.945Z" fill="white"/>
<path opacity="0.6" d="M516.158 195.598C516.943 195.598 517.579 194.931 517.579 194.107C517.579 193.284 516.943 192.616 516.158 192.616C515.373 192.616 514.736 193.284 514.736 194.107C514.736 194.931 515.373 195.598 516.158 195.598Z" fill="white"/>
<path opacity="0.6" d="M452.904 172.395C453.689 172.395 454.325 171.727 454.325 170.904C454.325 170.08 453.689 169.413 452.904 169.413C452.119 169.413 451.482 170.08 451.482 170.904C451.482 171.727 452.119 172.395 452.904 172.395Z" fill="white"/>
<path opacity="0.6" d="M459.3 189.634C459.84 189.634 460.278 189.175 460.278 188.609C460.278 188.043 459.84 187.584 459.3 187.584C458.761 187.584 458.323 188.043 458.323 188.609C458.323 189.175 458.761 189.634 459.3 189.634Z" fill="white"/>
<path opacity="0.6" d="M513.226 105.673C513.766 105.673 514.203 105.214 514.203 104.648C514.203 104.082 513.766 103.623 513.226 103.623C512.686 103.623 512.249 104.082 512.249 104.648C512.249 105.214 512.686 105.673 513.226 105.673Z" fill="white"/>
<path opacity="0.6" d="M479.556 42.6794C480.292 42.6794 480.888 42.0536 480.888 41.2816C480.888 40.5096 480.292 39.8838 479.556 39.8838C478.82 39.8838 478.223 40.5096 478.223 41.2816C478.223 42.0536 478.82 42.6794 479.556 42.6794Z" fill="white"/>
<path opacity="0.6" d="M454.681 41.7475C455.22 41.7475 455.658 41.2885 455.658 40.7224C455.658 40.1563 455.22 39.6974 454.681 39.6974C454.141 39.6974 453.704 40.1563 453.704 40.7224C453.704 41.2885 454.141 41.7475 454.681 41.7475Z" fill="white"/>
<path opacity="0.6" d="M585.808 106.885C586.348 106.885 586.785 106.426 586.785 105.86C586.785 105.294 586.348 104.835 585.808 104.835C585.268 104.835 584.831 105.294 584.831 105.86C584.831 106.426 585.268 106.885 585.808 106.885Z" fill="white"/>
<path opacity="0.6" d="M655.369 21.6192C655.909 21.6192 656.346 21.1603 656.346 20.5942C656.346 20.0281 655.909 19.5691 655.369 19.5691C654.83 19.5691 654.392 20.0281 654.392 20.5942C654.392 21.1603 654.83 21.6192 655.369 21.6192Z" fill="white"/>
<path opacity="0.6" d="M817.857 11.2756C818.396 11.2756 818.834 10.8167 818.834 10.2505C818.834 9.68443 818.396 9.22549 817.857 9.22549C817.317 9.22549 816.879 9.68443 816.879 10.2505C816.879 10.8167 817.317 11.2756 817.857 11.2756Z" fill="white"/>
<path opacity="0.6" d="M465.164 276.111C465.703 276.111 466.141 275.652 466.141 275.086C466.141 274.52 465.703 274.061 465.164 274.061C464.624 274.061 464.187 274.52 464.187 275.086C464.187 275.652 464.624 276.111 465.164 276.111Z" fill="white"/>
<path opacity="0.6" d="M568.839 432.944C569.428 432.944 569.906 432.443 569.906 431.826C569.906 431.208 569.428 430.707 568.839 430.707C568.251 430.707 567.773 431.208 567.773 431.826C567.773 432.443 568.251 432.944 568.839 432.944Z" fill="white"/>
<path opacity="0.6" d="M636.18 440.306C636.769 440.306 637.246 439.805 637.246 439.187C637.246 438.57 636.769 438.069 636.18 438.069C635.591 438.069 635.114 438.57 635.114 439.187C635.114 439.805 635.591 440.306 636.18 440.306Z" fill="white"/>
<path opacity="0.6" d="M713.914 443.94C714.503 443.94 714.981 443.439 714.981 442.822C714.981 442.204 714.503 441.703 713.914 441.703C713.326 441.703 712.848 442.204 712.848 442.822C712.848 443.439 713.326 443.94 713.914 443.94Z" fill="white"/>
<path opacity="0.6" d="M710.45 415.984C711.039 415.984 711.516 415.483 711.516 414.866C711.516 414.248 711.039 413.748 710.45 413.748C709.861 413.748 709.384 414.248 709.384 414.866C709.384 415.483 709.861 415.984 710.45 415.984Z" fill="white"/>
<path opacity="0.6" d="M732.482 401.354C733.071 401.354 733.548 400.853 733.548 400.235C733.548 399.618 733.071 399.117 732.482 399.117C731.893 399.117 731.416 399.618 731.416 400.235C731.416 400.853 731.893 401.354 732.482 401.354Z" fill="white"/>
<path opacity="0.6" d="M786.407 306.21C786.898 306.21 787.296 305.793 787.296 305.279C787.296 304.764 786.898 304.347 786.407 304.347C785.917 304.347 785.519 304.764 785.519 305.279C785.519 305.793 785.917 306.21 786.407 306.21Z" fill="white"/>
<path opacity="0.6" d="M882.176 364.452C883.207 364.452 884.042 363.576 884.042 362.495C884.042 361.414 883.207 360.538 882.176 360.538C881.146 360.538 880.311 361.414 880.311 362.495C880.311 363.576 881.146 364.452 882.176 364.452Z" fill="white"/>
<path opacity="0.6" d="M887.418 352.244C887.811 352.244 888.129 351.911 888.129 351.499C888.129 351.087 887.811 350.753 887.418 350.753C887.026 350.753 886.707 351.087 886.707 351.499C886.707 351.911 887.026 352.244 887.418 352.244Z" fill="white"/>
<path opacity="0.6" d="M890.261 258.592C890.653 258.592 890.972 258.258 890.972 257.847C890.972 257.435 890.653 257.101 890.261 257.101C889.868 257.101 889.55 257.435 889.55 257.847C889.55 258.258 889.868 258.592 890.261 258.592Z" fill="white"/>
<path opacity="0.6" d="M929.173 190.38C929.565 190.38 929.883 190.046 929.883 189.634C929.883 189.223 929.565 188.889 929.173 188.889C928.78 188.889 928.462 189.223 928.462 189.634C928.462 190.046 928.78 190.38 929.173 190.38Z" fill="white"/>
<path opacity="0.6" d="M861.299 195.225C861.692 195.225 862.01 194.892 862.01 194.48C862.01 194.068 861.692 193.734 861.299 193.734C860.907 193.734 860.589 194.068 860.589 194.48C860.589 194.892 860.907 195.225 861.299 195.225Z" fill="white"/>
<path opacity="0.6" d="M922.332 442.542C922.823 442.542 923.22 442.125 923.22 441.61C923.22 441.096 922.823 440.678 922.332 440.678C921.841 440.678 921.444 441.096 921.444 441.61C921.444 442.125 921.841 442.542 922.332 442.542Z" fill="white"/>
<path opacity="0.6" d="M857.923 422.414C858.414 422.414 858.812 421.996 858.812 421.482C858.812 420.967 858.414 420.55 857.923 420.55C857.433 420.55 857.035 420.967 857.035 421.482C857.035 421.996 857.433 422.414 857.923 422.414Z" fill="white"/>
<path opacity="0.6" d="M842.821 465C843.311 465 843.709 464.583 843.709 464.068C843.709 463.553 843.311 463.136 842.821 463.136C842.33 463.136 841.932 463.553 841.932 464.068C841.932 464.583 842.33 465 842.821 465Z" fill="white"/>
<path opacity="0.6" d="M817.235 304.067C817.726 304.067 818.123 303.65 818.123 303.135C818.123 302.621 817.726 302.203 817.235 302.203C816.744 302.203 816.346 302.621 816.346 303.135C816.346 303.65 816.744 304.067 817.235 304.067Z" fill="white"/>
<path opacity="0.6" d="M814.037 262.972C814.527 262.972 814.925 262.555 814.925 262.04C814.925 261.525 814.527 261.108 814.037 261.108C813.546 261.108 813.148 261.525 813.148 262.04C813.148 262.555 813.546 262.972 814.037 262.972Z" fill="white"/>
<path opacity="0.6" d="M713.648 255.983C714.139 255.983 714.536 255.566 714.536 255.051C714.536 254.537 714.139 254.119 713.648 254.119C713.157 254.119 712.76 254.537 712.76 255.051C712.76 255.566 713.157 255.983 713.648 255.983Z" fill="white"/>
<path opacity="0.6" d="M748.473 222.529C748.964 222.529 749.361 222.112 749.361 221.597C749.361 221.083 748.964 220.665 748.473 220.665C747.982 220.665 747.585 221.083 747.585 221.597C747.585 222.112 747.982 222.529 748.473 222.529Z" fill="white"/>
<path opacity="0.6" d="M617.346 217.683C617.837 217.683 618.234 217.266 618.234 216.752C618.234 216.237 617.837 215.82 617.346 215.82C616.855 215.82 616.458 216.237 616.458 216.752C616.458 217.266 616.855 217.683 617.346 217.683Z" fill="white"/>
<path opacity="0.6" d="M564.22 412.909C564.809 412.909 565.286 412.408 565.286 411.791C565.286 411.173 564.809 410.672 564.22 410.672C563.631 410.672 563.154 411.173 563.154 411.791C563.154 412.408 563.631 412.909 564.22 412.909Z" fill="white"/>
<path opacity="0.6" d="M1001.67 188.982C1002.25 188.982 1002.73 188.481 1002.73 187.864C1002.73 187.246 1002.25 186.745 1001.67 186.745C1001.08 186.745 1000.6 187.246 1000.6 187.864C1000.6 188.481 1001.08 188.982 1001.67 188.982Z" fill="white"/>
<path opacity="0.6" d="M914.336 171.649C915.072 171.649 915.669 171.023 915.669 170.251C915.669 169.48 915.072 168.854 914.336 168.854C913.6 168.854 913.004 169.48 913.004 170.251C913.004 171.023 913.6 171.649 914.336 171.649Z" fill="white"/>
<path opacity="0.6" d="M898.612 77.997C899.397 77.997 900.033 77.3295 900.033 76.5061C900.033 75.6826 899.397 75.0151 898.612 75.0151C897.827 75.0151 897.19 75.6826 897.19 76.5061C897.19 77.3295 897.827 77.997 898.612 77.997Z" fill="white"/>
<path opacity="0.6" d="M1238.25 313.572C1238.83 313.572 1239.31 313.071 1239.31 312.454C1239.31 311.836 1238.83 311.336 1238.25 311.336C1237.66 311.336 1237.18 311.836 1237.18 312.454C1237.18 313.071 1237.66 313.572 1238.25 313.572Z" fill="white"/>
<path opacity="0.6" d="M1245.17 380.573C1245.76 380.573 1246.24 380.072 1246.24 379.455C1246.24 378.837 1245.76 378.337 1245.17 378.337C1244.59 378.337 1244.11 378.837 1244.11 379.455C1244.11 380.072 1244.59 380.573 1245.17 380.573Z" fill="white"/>
<path opacity="0.6" d="M1173.04 80.6062C1173.63 80.6062 1174.1 80.1056 1174.1 79.488C1174.1 78.8704 1173.63 78.3698 1173.04 78.3698C1172.45 78.3698 1171.97 78.8704 1171.97 79.488C1171.97 80.1056 1172.45 80.6062 1173.04 80.6062Z" fill="white"/>
<path opacity="0.6" d="M1064.03 77.3447C1064.62 77.3447 1065.1 76.844 1065.1 76.2265C1065.1 75.6089 1064.62 75.1082 1064.03 75.1082C1063.44 75.1082 1062.96 75.6089 1062.96 76.2265C1062.96 76.844 1063.44 77.3447 1064.03 77.3447Z" fill="white"/>
<path opacity="0.6" d="M884.22 51.998C885.005 51.998 885.641 51.3304 885.641 50.507C885.641 49.6835 885.005 49.016 884.22 49.016C883.435 49.016 882.798 49.6835 882.798 50.507C882.798 51.3304 883.435 51.998 884.22 51.998Z" fill="white"/>
<path opacity="0.6" d="M955.825 375.168C956.364 375.168 956.802 374.709 956.802 374.143C956.802 373.577 956.364 373.118 955.825 373.118C955.285 373.118 954.847 373.577 954.847 374.143C954.847 374.709 955.285 375.168 955.825 375.168Z" fill="white"/>
<path opacity="0.6" d="M1028.32 376.38C1028.86 376.38 1029.29 375.921 1029.29 375.355C1029.29 374.789 1028.86 374.33 1028.32 374.33C1027.78 374.33 1027.34 374.789 1027.34 375.355C1027.34 375.921 1027.78 376.38 1028.32 376.38Z" fill="white"/>
<path opacity="0.6" d="M1389.81 362.309C1390.39 362.309 1390.87 361.808 1390.87 361.19C1390.87 360.573 1390.39 360.072 1389.81 360.072C1389.22 360.072 1388.74 360.573 1388.74 361.19C1388.74 361.808 1389.22 362.309 1389.81 362.309Z" fill="white"/>
<path opacity="0.6" d="M129.972 259.338C130.561 259.338 131.038 258.837 131.038 258.219C131.038 257.602 130.561 257.101 129.972 257.101C129.383 257.101 128.906 257.602 128.906 258.219C128.906 258.837 129.383 259.338 129.972 259.338Z" fill="white"/>
<path opacity="0.6" d="M1107.3 423.812C1107.84 423.812 1108.27 423.353 1108.27 422.787C1108.27 422.22 1107.84 421.762 1107.3 421.762C1106.76 421.762 1106.32 422.22 1106.32 422.787C1106.32 423.353 1106.76 423.812 1107.3 423.812Z" fill="white"/>
<path opacity="0.6" d="M1179.88 425.023C1180.42 425.023 1180.85 424.564 1180.85 423.998C1180.85 423.432 1180.42 422.973 1179.88 422.973C1179.34 422.973 1178.9 423.432 1178.9 423.998C1178.9 424.564 1179.34 425.023 1179.88 425.023Z" fill="white"/>
<path opacity="0.6" d="M936.902 289.437C937.49 289.437 937.968 288.936 937.968 288.319C937.968 287.701 937.49 287.2 936.902 287.2C936.313 287.2 935.836 287.701 935.836 288.319C935.836 288.936 936.313 289.437 936.902 289.437Z" fill="white"/>
<path opacity="0.6" d="M1004.24 296.705C1004.83 296.705 1005.31 296.205 1005.31 295.587C1005.31 294.97 1004.83 294.469 1004.24 294.469C1003.65 294.469 1003.18 294.97 1003.18 295.587C1003.18 296.205 1003.65 296.705 1004.24 296.705Z" fill="white"/>
<path opacity="0.6" d="M1081.98 300.34C1082.57 300.34 1083.04 299.839 1083.04 299.221C1083.04 298.604 1082.57 298.103 1081.98 298.103C1081.39 298.103 1080.91 298.604 1080.91 299.221C1080.91 299.839 1081.39 300.34 1081.98 300.34Z" fill="white"/>
<path opacity="0.6" d="M1078.51 272.384C1079.1 272.384 1079.58 271.883 1079.58 271.266C1079.58 270.648 1079.1 270.147 1078.51 270.147C1077.92 270.147 1077.45 270.648 1077.45 271.266C1077.45 271.883 1077.92 272.384 1078.51 272.384Z" fill="white"/>
<path opacity="0.6" d="M1100.54 257.754C1101.13 257.754 1101.61 257.253 1101.61 256.635C1101.61 256.018 1101.13 255.517 1100.54 255.517C1099.96 255.517 1099.48 256.018 1099.48 256.635C1099.48 257.253 1099.96 257.754 1100.54 257.754Z" fill="white"/>
<path opacity="0.6" d="M1154.47 162.61C1154.96 162.61 1155.36 162.193 1155.36 161.678C1155.36 161.164 1154.96 160.747 1154.47 160.747C1153.98 160.747 1153.58 161.164 1153.58 161.678C1153.58 162.193 1153.98 162.61 1154.47 162.61Z" fill="white"/>
<path opacity="0.6" d="M1250.24 220.852C1251.27 220.852 1252.1 219.976 1252.1 218.895C1252.1 217.814 1251.27 216.938 1250.24 216.938C1249.21 216.938 1248.37 217.814 1248.37 218.895C1248.37 219.976 1249.21 220.852 1250.24 220.852Z" fill="white"/>
<path opacity="0.6" d="M1255.48 208.738C1255.87 208.738 1256.19 208.404 1256.19 207.992C1256.19 207.58 1255.87 207.247 1255.48 207.247C1255.09 207.247 1254.77 207.58 1254.77 207.992C1254.77 208.404 1255.09 208.738 1255.48 208.738Z" fill="white"/>
<path opacity="0.6" d="M1258.32 114.992C1258.72 114.992 1259.03 114.658 1259.03 114.247C1259.03 113.835 1258.72 113.501 1258.32 113.501C1257.93 113.501 1257.61 113.835 1257.61 114.247C1257.61 114.658 1257.93 114.992 1258.32 114.992Z" fill="white"/>
<path opacity="0.6" d="M1297.23 46.7796C1297.63 46.7796 1297.95 46.4459 1297.95 46.0341C1297.95 45.6224 1297.63 45.2886 1297.23 45.2886C1296.84 45.2886 1296.52 45.6224 1296.52 46.0341C1296.52 46.4459 1296.84 46.7796 1297.23 46.7796Z" fill="white"/>
<path opacity="0.6" d="M1229.36 51.7184C1229.75 51.7184 1230.07 51.3847 1230.07 50.9729C1230.07 50.5612 1229.75 50.2274 1229.36 50.2274C1228.97 50.2274 1228.65 50.5612 1228.65 50.9729C1228.65 51.3847 1228.97 51.7184 1229.36 51.7184Z" fill="white"/>
<path opacity="0.6" d="M1290.39 298.942C1290.88 298.942 1291.28 298.525 1291.28 298.01C1291.28 297.495 1290.88 297.078 1290.39 297.078C1289.9 297.078 1289.51 297.495 1289.51 298.01C1289.51 298.525 1289.9 298.942 1290.39 298.942Z" fill="white"/>
<path opacity="0.6" d="M1225.99 278.907C1226.48 278.907 1226.87 278.49 1226.87 277.975C1226.87 277.46 1226.48 277.043 1225.99 277.043C1225.49 277.043 1225.1 277.46 1225.1 277.975C1225.1 278.49 1225.49 278.907 1225.99 278.907Z" fill="white"/>
<path opacity="0.6" d="M1210.88 321.493C1211.37 321.493 1211.77 321.076 1211.77 320.561C1211.77 320.047 1211.37 319.629 1210.88 319.629C1210.39 319.629 1209.99 320.047 1209.99 320.561C1209.99 321.076 1210.39 321.493 1210.88 321.493Z" fill="white"/>
<path opacity="0.6" d="M1185.3 160.467C1185.79 160.467 1186.19 160.05 1186.19 159.535C1186.19 159.02 1185.79 158.603 1185.3 158.603C1184.81 158.603 1184.41 159.02 1184.41 159.535C1184.41 160.05 1184.81 160.467 1185.3 160.467Z" fill="white"/>
<path opacity="0.6" d="M1182.1 119.465C1182.59 119.465 1182.99 119.048 1182.99 118.533C1182.99 118.018 1182.59 117.601 1182.1 117.601C1181.61 117.601 1181.21 118.018 1181.21 118.533C1181.21 119.048 1181.61 119.465 1182.1 119.465Z" fill="white"/>
<path opacity="0.6" d="M1081.71 112.476C1082.2 112.476 1082.6 112.059 1082.6 111.544C1082.6 111.029 1082.2 110.612 1081.71 110.612C1081.22 110.612 1080.82 111.029 1080.82 111.544C1080.82 112.059 1081.22 112.476 1081.71 112.476Z" fill="white"/>
<path opacity="0.6" d="M1116.54 78.9289C1117.03 78.9289 1117.42 78.5116 1117.42 77.997C1117.42 77.4823 1117.03 77.0651 1116.54 77.0651C1116.04 77.0651 1115.65 77.4823 1115.65 77.997C1115.65 78.5116 1116.04 78.9289 1116.54 78.9289Z" fill="white"/>
<path opacity="0.6" d="M985.408 74.0832C985.899 74.0832 986.296 73.666 986.296 73.1513C986.296 72.6367 985.899 72.2195 985.408 72.2195C984.917 72.2195 984.52 72.6367 984.52 73.1513C984.52 73.666 984.917 74.0832 985.408 74.0832Z" fill="white"/>
<path opacity="0.6" d="M932.282 269.309C932.871 269.309 933.348 268.808 933.348 268.19C933.348 267.573 932.871 267.072 932.282 267.072C931.693 267.072 931.216 267.573 931.216 268.19C931.216 268.808 931.693 269.309 932.282 269.309Z" fill="white"/>
<path opacity="0.6" d="M101.721 47.991C102.31 47.991 102.787 47.4903 102.787 46.8728C102.787 46.2552 102.31 45.7545 101.721 45.7545C101.132 45.7545 100.655 46.2552 100.655 46.8728C100.655 47.4903 101.132 47.991 101.721 47.991Z" fill="white"/>
<path opacity="0.6" d="M14.3032 30.5652C15.0391 30.5652 15.6358 29.9393 15.6358 29.1674C15.6358 28.3954 15.0391 27.7696 14.3032 27.7696C13.5672 27.7696 12.9706 28.3954 12.9706 29.1674C12.9706 29.9393 13.5672 30.5652 14.3032 30.5652Z" fill="white"/>
<path opacity="0.6" d="M36.9572 148.353C37.546 148.353 38.0233 147.852 38.0233 147.234C38.0233 146.617 37.546 146.116 36.9572 146.116C36.3685 146.116 35.8912 146.617 35.8912 147.234C35.8912 147.852 36.3685 148.353 36.9572 148.353Z" fill="white"/>
<path opacity="0.6" d="M104.209 155.714C104.798 155.714 105.275 155.214 105.275 154.596C105.275 153.979 104.798 153.478 104.209 153.478C103.62 153.478 103.143 153.979 103.143 154.596C103.143 155.214 103.62 155.714 104.209 155.714Z" fill="white"/>
<path opacity="0.6" d="M181.943 159.349C182.532 159.349 183.009 158.848 183.009 158.23C183.009 157.613 182.532 157.112 181.943 157.112C181.355 157.112 180.877 157.613 180.877 158.23C180.877 158.848 181.355 159.349 181.943 159.349Z" fill="white"/>
<path opacity="0.6" d="M178.479 131.3C179.067 131.3 179.545 130.799 179.545 130.181C179.545 129.564 179.067 129.063 178.479 129.063C177.89 129.063 177.413 129.564 177.413 130.181C177.413 130.799 177.89 131.3 178.479 131.3Z" fill="white"/>
<path opacity="0.6" d="M200.511 116.763C201.1 116.763 201.577 116.262 201.577 115.644C201.577 115.027 201.1 114.526 200.511 114.526C199.922 114.526 199.445 115.027 199.445 115.644C199.445 116.262 199.922 116.763 200.511 116.763Z" fill="white"/>
<path opacity="0.6" d="M254.525 21.6193C255.016 21.6193 255.414 21.2021 255.414 20.6874C255.414 20.1728 255.016 19.7556 254.525 19.7556C254.035 19.7556 253.637 20.1728 253.637 20.6874C253.637 21.2021 254.035 21.6193 254.525 21.6193Z" fill="white"/>
<path opacity="0.6" d="M350.205 79.8608C351.236 79.8608 352.071 78.9846 352.071 77.9039C352.071 76.8231 351.236 75.947 350.205 75.947C349.175 75.947 348.34 76.8231 348.34 77.9039C348.34 78.9846 349.175 79.8608 350.205 79.8608Z" fill="white"/>
<path opacity="0.6" d="M355.447 67.6533C355.839 67.6533 356.158 67.3195 356.158 66.9078C356.158 66.4961 355.839 66.1623 355.447 66.1623C355.054 66.1623 354.736 66.4961 354.736 66.9078C354.736 67.3195 355.054 67.6533 355.447 67.6533Z" fill="white"/>
<path opacity="0.6" d="M390.361 157.951C390.852 157.951 391.249 157.534 391.249 157.019C391.249 156.504 390.852 156.087 390.361 156.087C389.87 156.087 389.472 156.504 389.472 157.019C389.472 157.534 389.87 157.951 390.361 157.951Z" fill="white"/>
<path opacity="0.6" d="M325.952 137.823C326.443 137.823 326.841 137.406 326.841 136.891C326.841 136.376 326.443 135.959 325.952 135.959C325.462 135.959 325.064 136.376 325.064 136.891C325.064 137.406 325.462 137.823 325.952 137.823Z" fill="white"/>
<path opacity="0.6" d="M274.425 419.246C275.21 419.246 275.847 418.578 275.847 417.755C275.847 416.931 275.21 416.264 274.425 416.264C273.64 416.264 273.004 416.931 273.004 417.755C273.004 418.578 273.64 419.246 274.425 419.246Z" fill="white"/>
<path opacity="0.6" d="M323.109 406.479C323.894 406.479 324.531 405.811 324.531 404.988C324.531 404.164 323.894 403.497 323.109 403.497C322.324 403.497 321.688 404.164 321.688 404.988C321.688 405.811 322.324 406.479 323.109 406.479Z" fill="white"/>
<path opacity="0.6" d="M269.184 358.674C269.773 358.674 270.25 358.174 270.25 357.556C270.25 356.939 269.773 356.438 269.184 356.438C268.595 356.438 268.118 356.939 268.118 357.556C268.118 358.174 268.595 358.674 269.184 358.674Z" fill="white"/>
<path opacity="0.6" d="M106.252 366.036C106.792 366.036 107.229 365.577 107.229 365.011C107.229 364.445 106.792 363.986 106.252 363.986C105.712 363.986 105.275 364.445 105.275 365.011C105.275 365.577 105.712 366.036 106.252 366.036Z" fill="white"/>
<path opacity="0.6" d="M193.315 421.482C193.855 421.482 194.292 421.023 194.292 420.457C194.292 419.891 193.855 419.432 193.315 419.432C192.775 419.432 192.338 419.891 192.338 420.457C192.338 421.023 192.775 421.482 193.315 421.482Z" fill="white"/>
<path opacity="0.6" d="M308.717 380.48C309.502 380.48 310.139 379.812 310.139 378.989C310.139 378.166 309.502 377.498 308.717 377.498C307.932 377.498 307.296 378.166 307.296 378.989C307.296 379.812 307.932 380.48 308.717 380.48Z" fill="white"/>
<path opacity="0.6" d="M245.464 357.37C246.249 357.37 246.885 356.702 246.885 355.879C246.885 355.055 246.249 354.388 245.464 354.388C244.679 354.388 244.042 355.055 244.042 355.879C244.042 356.702 244.679 357.37 245.464 357.37Z" fill="white"/>
<path opacity="0.6" d="M251.86 374.516C252.4 374.516 252.837 374.057 252.837 373.491C252.837 372.925 252.4 372.466 251.86 372.466C251.32 372.466 250.883 372.925 250.883 373.491C250.883 374.057 251.32 374.516 251.86 374.516Z" fill="white"/>
<path opacity="0.6" d="M182.92 342.833C183.411 342.833 183.809 342.415 183.809 341.901C183.809 341.386 183.411 340.969 182.92 340.969C182.43 340.969 182.032 341.386 182.032 341.901C182.032 342.415 182.43 342.833 182.92 342.833Z" fill="white"/>
<path opacity="0.6" d="M118.512 322.798C119.003 322.798 119.4 322.38 119.4 321.866C119.4 321.351 119.003 320.934 118.512 320.934C118.021 320.934 117.624 321.351 117.624 321.866C117.624 322.38 118.021 322.798 118.512 322.798Z" fill="white"/>
<path opacity="0.6" d="M1302.39 460.527C1303.12 460.527 1303.72 459.901 1303.72 459.129C1303.72 458.357 1303.12 457.731 1302.39 457.731C1301.65 457.731 1301.05 458.357 1301.05 459.129C1301.05 459.901 1301.65 460.527 1302.39 460.527Z" fill="white"/>
<path opacity="0.6" d="M1303.01 416.543C1303.99 416.543 1304.79 415.709 1304.79 414.679C1304.79 413.65 1303.99 412.816 1303.01 412.816C1302.03 412.816 1301.23 413.65 1301.23 414.679C1301.23 415.709 1302.03 416.543 1303.01 416.543Z" fill="white"/>
<path opacity="0.6" d="M1379.59 393.06C1380.37 393.06 1381.01 392.393 1381.01 391.569C1381.01 390.746 1380.37 390.078 1379.59 390.078C1378.8 390.078 1378.17 390.746 1378.17 391.569C1378.17 392.393 1378.8 393.06 1379.59 393.06Z" fill="white"/>
<path opacity="0.6" d="M1391.76 444.219C1392.55 444.219 1393.18 443.552 1393.18 442.728C1393.18 441.905 1392.55 441.237 1391.76 441.237C1390.97 441.237 1390.34 441.905 1390.34 442.728C1390.34 443.552 1390.97 444.219 1391.76 444.219Z" fill="white"/>
<path opacity="0.6" d="M1437.07 387.189C1437.66 387.189 1438.13 386.689 1438.13 386.071C1438.13 385.453 1437.66 384.953 1437.07 384.953C1436.48 384.953 1436 385.453 1436 386.071C1436 386.689 1436.48 387.189 1437.07 387.189Z" fill="white"/>
<path opacity="0.6" d="M1345.92 284.405C1346.51 284.405 1346.98 283.904 1346.98 283.287C1346.98 282.669 1346.51 282.168 1345.92 282.168C1345.33 282.168 1344.85 282.669 1344.85 283.287C1344.85 283.904 1345.33 284.405 1345.92 284.405Z" fill="white"/>
<path opacity="0.6" d="M1282.13 291.673C1282.72 291.673 1283.2 291.173 1283.2 290.555C1283.2 289.938 1282.72 289.437 1282.13 289.437C1281.54 289.437 1281.07 289.938 1281.07 290.555C1281.07 291.173 1281.54 291.673 1282.13 291.673Z" fill="white"/>
<path opacity="0.6" d="M89.3726 97.9389C89.9123 97.9389 90.3498 97.48 90.3498 96.9138C90.3498 96.3477 89.9123 95.8888 89.3726 95.8888C88.8329 95.8888 88.3953 96.3477 88.3953 96.9138C88.3953 97.48 88.8329 97.9389 89.3726 97.9389Z" fill="white"/>
<path opacity="0.6" d="M149.695 63.0872C150.431 63.0872 151.027 62.4613 151.027 61.6894C151.027 60.9174 150.431 60.2916 149.695 60.2916C148.959 60.2916 148.362 60.9174 148.362 61.6894C148.362 62.4613 148.959 63.0872 149.695 63.0872Z" fill="white"/>
<path opacity="0.6" d="M150.317 36.5291C150.856 36.5291 151.294 36.0701 151.294 35.504C151.294 34.9379 150.856 34.479 150.317 34.479C149.777 34.479 149.339 34.9379 149.339 35.504C149.339 36.0701 149.777 36.5291 150.317 36.5291Z" fill="white"/>
<path opacity="0.6" d="M215.88 51.1593C216.42 51.1593 216.857 50.7004 216.857 50.1342C216.857 49.5681 216.42 49.1092 215.88 49.1092C215.34 49.1092 214.903 49.5681 214.903 50.1342C214.903 50.7004 215.34 51.1593 215.88 51.1593Z" fill="white"/>
<path opacity="0.6" d="M613.526 157.858C614.065 157.858 614.503 157.399 614.503 156.833C614.503 156.267 614.065 155.808 613.526 155.808C612.986 155.808 612.549 156.267 612.549 156.833C612.549 157.399 612.986 157.858 613.526 157.858Z" fill="white"/>
<path opacity="0.6" d="M673.848 122.913C674.584 122.913 675.18 122.287 675.18 121.515C675.18 120.743 674.584 120.117 673.848 120.117C673.112 120.117 672.515 120.743 672.515 121.515C672.515 122.287 673.112 122.913 673.848 122.913Z" fill="white"/>
<path opacity="0.6" d="M674.47 96.3547C675.009 96.3547 675.447 95.8958 675.447 95.3297C675.447 94.7635 675.009 94.3046 674.47 94.3046C673.93 94.3046 673.492 94.7635 673.492 95.3297C673.492 95.8958 673.93 96.3547 674.47 96.3547Z" fill="white"/>
<path opacity="0.6" d="M740.033 110.985C740.573 110.985 741.011 110.526 741.011 109.96C741.011 109.394 740.573 108.935 740.033 108.935C739.494 108.935 739.056 109.394 739.056 109.96C739.056 110.526 739.494 110.985 740.033 110.985Z" fill="white"/>
<path opacity="0.6" d="M1403.22 2.0501C1403.76 2.0501 1404.2 1.59117 1404.2 1.02505C1404.2 0.45893 1403.76 0 1403.22 0C1402.68 0 1402.24 0.45893 1402.24 1.02505C1402.24 1.59117 1402.68 2.0501 1403.22 2.0501Z" fill="white"/>
<path opacity="0.6" d="M1285.95 64.1122C1286.49 64.1122 1286.93 63.6532 1286.93 63.0871C1286.93 62.521 1286.49 62.0621 1285.95 62.0621C1285.41 62.0621 1284.97 62.521 1284.97 63.0871C1284.97 63.6532 1285.41 64.1122 1285.95 64.1122Z" fill="white"/>
<path opacity="0.6" d="M1367.24 137.077C1367.78 137.077 1368.22 136.618 1368.22 136.052C1368.22 135.486 1367.78 135.027 1367.24 135.027C1366.7 135.027 1366.26 135.486 1366.26 136.052C1366.26 136.618 1366.7 137.077 1367.24 137.077Z" fill="white"/>
<path opacity="0.6" d="M1383.5 149.285C1384.04 149.285 1384.48 148.826 1384.48 148.259C1384.48 147.693 1384.04 147.234 1383.5 147.234C1382.96 147.234 1382.52 147.693 1382.52 148.259C1382.52 148.826 1382.96 149.285 1383.5 149.285Z" fill="white"/>
<path opacity="0.6" d="M1429.87 216.192C1430.41 216.192 1430.85 215.733 1430.85 215.167C1430.85 214.601 1430.41 214.142 1429.87 214.142C1429.33 214.142 1428.9 214.601 1428.9 215.167C1428.9 215.733 1429.33 216.192 1429.87 216.192Z" fill="white"/>
<path opacity="0.6" d="M1377.1 307.515C1377.64 307.515 1378.08 307.056 1378.08 306.49C1378.08 305.924 1377.64 305.465 1377.1 305.465C1376.56 305.465 1376.12 305.924 1376.12 306.49C1376.12 307.056 1376.56 307.515 1377.1 307.515Z" fill="white"/>
<path opacity="0.6" d="M149.783 259.151C150.569 259.151 151.205 258.484 151.205 257.66C151.205 256.837 150.569 256.169 149.783 256.169C148.998 256.169 148.362 256.837 148.362 257.66C148.362 258.484 148.998 259.151 149.783 259.151Z" fill="white"/>
<path opacity="0.6" d="M1438.58 362.681C1439.36 362.681 1440 362.014 1440 361.19C1440 360.367 1439.36 359.699 1438.58 359.699C1437.79 359.699 1437.16 360.367 1437.16 361.19C1437.16 362.014 1437.79 362.681 1438.58 362.681Z" fill="white"/>
<path opacity="0.6" d="M1421.79 368.925C1422.33 368.925 1422.77 368.466 1422.77 367.9C1422.77 367.334 1422.33 366.875 1421.79 366.875C1421.25 366.875 1420.81 367.334 1420.81 367.9C1420.81 368.466 1421.25 368.925 1421.79 368.925Z" fill="white"/>
<path opacity="0.6" d="M1339.34 375.075C1339.88 375.075 1340.32 374.616 1340.32 374.05C1340.32 373.484 1339.88 373.025 1339.34 373.025C1338.8 373.025 1338.37 373.484 1338.37 374.05C1338.37 374.616 1338.8 375.075 1339.34 375.075Z" fill="white"/>
<path opacity="0.6" d="M1275.65 78.9289C1276.14 78.9289 1276.54 78.5116 1276.54 77.997C1276.54 77.4823 1276.14 77.0651 1275.65 77.0651C1275.16 77.0651 1274.76 77.4823 1274.76 77.997C1274.76 78.5116 1275.16 78.9289 1275.65 78.9289Z" fill="white"/>
<path opacity="0.6" d="M1294.75 11.3687C1295.24 11.3687 1295.64 10.9515 1295.64 10.4369C1295.64 9.92222 1295.24 9.505 1294.75 9.505C1294.26 9.505 1293.86 9.92222 1293.86 10.4369C1293.86 10.9515 1294.26 11.3687 1294.75 11.3687Z" fill="white"/>
<path opacity="0.6" d="M285.264 19.4759C285.754 19.4759 286.152 19.0587 286.152 18.5441C286.152 18.0294 285.754 17.6122 285.264 17.6122C284.773 17.6122 284.375 18.0294 284.375 18.5441C284.375 19.0587 284.773 19.4759 285.264 19.4759Z" fill="white"/>
<path opacity="0.6" d="M32.2488 128.318C32.8375 128.318 33.3148 127.817 33.3148 127.199C33.3148 126.582 32.8375 126.081 32.2488 126.081C31.66 126.081 31.1827 126.582 31.1827 127.199C31.1827 127.817 31.66 128.318 32.2488 128.318Z" fill="white"/>
</g>
</svg>
