<svg width="16" height="14" viewBox="0 0 16 14" fill="none" xmlns="http://www.w3.org/2000/svg">
<path d="M16 2.06798C15.4107 2.32743 14.7828 2.49941 14.1282 2.58291C14.8016 2.17932 15.3156 1.54509 15.5573 0.780642C14.9294 1.15641 14.2361 1.42183 13.4973 1.56994C12.9011 0.932737 12.0513 0.538086 11.1243 0.538086C9.32579 0.538086 7.87785 2.00336 7.87785 3.79967C7.87785 4.05813 7.89964 4.30665 7.95312 4.54325C5.25234 4.41103 2.86254 3.11177 1.25713 1.13255C0.976849 1.62064 0.812445 2.17932 0.812445 2.78074C0.812445 3.91001 1.39182 4.91106 2.25544 5.49061C1.7335 5.48067 1.22147 5.32857 0.787685 5.089C0.787685 5.09894 0.787685 5.11186 0.787685 5.12478C0.787685 6.70935 1.91375 8.02552 3.39042 8.32871C3.12598 8.40128 2.83778 8.43607 2.53869 8.43607C2.3307 8.43607 2.12074 8.42414 1.92366 8.3804C2.34457 9.67172 3.53897 10.6211 4.95919 10.6519C3.85392 11.5197 2.45054 12.0426 0.931291 12.0426C0.664878 12.0426 0.409358 12.0307 0.153839 11.9979C1.59287 12.9293 3.29831 13.4612 5.13745 13.4612C11.1154 13.4612 14.3837 8.49075 14.3837 4.18239C14.3837 4.03825 14.3787 3.89908 14.3718 3.7609C15.0165 3.30164 15.5583 2.72805 16 2.06798Z" fill="#03A9F4"/>
</svg>
